<?xml version="1.0" standalone="no"?>
<!DOCTYPE svg PUBLIC "-//W3C//DTD SVG 1.1//EN" "http://www.w3.org/Graphics/SVG/1.1/DTD/svg11.dtd" >
<!--
2013-9-30: Created.
-->
<svg>
<metadata>
Created by iconfont
</metadata>
<defs>

<font id="iconfont" horiz-adv-x="1024" >
  <font-face
    font-family="iconfont"
    font-weight="500"
    font-stretch="normal"
    units-per-em="1024"
    ascent="896"
    descent="-128"
  />
    <missing-glyph />
    
    <glyph glyph-name="twitter" unicode="&#59601;" d="M994.78555556 658.96444445c-35.31-15.66-73.29-26.25-113.13-31.02 40.65 24.39 71.88 62.97 86.61 108.96-38.07-22.56-80.22-38.97-125.07-47.79-35.94 38.28-87.12 62.19-143.76 62.19-108.78 0-196.95-88.17-196.95-196.95 0-15.45 1.74-30.48 5.1-44.88-163.68 8.22-308.82 86.64-405.96 205.8-16.95-29.1-26.67-62.91-26.67-99.03 0-68.34 34.77-128.61 87.63-163.95-32.28 1.02-62.64 9.87-89.22 24.63-0.03-0.81-0.03-1.65-0.03-2.49 0-95.43 67.89-175.02 157.98-193.11-16.53-4.5-33.93-6.9-51.9-6.9-12.69 0-25.02 1.23-37.05 3.54 25.05-78.24 97.8-135.18 183.99-136.77-67.41-52.83-152.34-84.3-244.62-84.3-15.9 0-31.56 0.93-46.98 2.76 87.15-55.89 190.68-88.5 301.92-88.5 362.28 0 560.37 300.12 560.37 560.4 0 8.55-0.18 17.04-0.57 25.47 38.49 27.78 71.88 62.46 98.28 101.94z"  horiz-adv-x="1025" />

    
    <glyph glyph-name="copyright" unicode="&#60151;" d="M512 41.984q139.989333 0 240.981333 100.992t100.992 240.981333-100.992 240.981333-240.981333 100.992-240.981333-100.992-100.992-240.981333 100.992-240.981333 240.981333-100.992zM512 809.984q176 0 301.013333-125.013333t125.013333-301.013333-125.013333-301.013333-301.013333-125.013333-301.013333 125.013333-125.013333 301.013333 125.013333 301.013333 301.013333 125.013333zM505.984 505.984q-80 0-80-116.010667l0-11.989333q0-116.010667 80-116.010667 29.994667 0 50.005333 16.981333t20.010667 43.008l75.989333 0q0-50.005333-43.989333-88.021333-41.984-36.010667-102.016-36.010667-80 0-121.984 48t-41.984 132.010667l0 11.989333q0 82.005333 40.021333 128 48 54.016 123.989333 54.016 66.005333 0 104.021333-38.016 41.984-41.984 41.984-98.005333l-75.989333 0q0 13.994667-6.016 25.984-9.984 20.010667-13.994667 24.021333-20.010667 20.010667-50.005333 20.010667z"  horiz-adv-x="1024" />

    
    <glyph glyph-name="socialwordpressoutline" unicode="&#59691;" d="M511.77244445 820.90666667C271.24622222 820.90666667 75.09333333 624.7537777800001 75.09333333 383.77244444999997 75.09333333 143.01866667000002 271.24622222-52.90666667000005 511.77244445-52.90666667000005c19.34222222 0 38.22933333 1.13777778 56.66133333 4.096 195.01511111 25.03111111 349.98044445 179.08622222 376.14933333 373.41866667 2.95822222 19.34222222 4.32355555 39.13955555 4.32355556 59.16444445C948.90666667 624.7537777800001 752.75377778 820.90666667 511.77244445 820.90666667zM119.23911111 383.77244444999997c0 56.88888889 12.288 111.04711111 34.13333334 159.744l187.27822222-513.13777778C209.57866667 94.09422222 119.23911111 228.57955555 119.23911111 383.77244444999997zM562.74488889-5.802666670000008c-16.61155555-2.048-33.67822222-3.18577778-50.97244444-3.18577778-38.45688889 0-75.54844445 5.68888889-110.592 16.15644445l42.78044444 125.15555555 0.22755556 0 74.41066666 217.31555556L639.43111111 18.773333330000014c0.91022222-1.82044445 2.048-3.64088889 2.95822222-5.23377778C616.90311111 4.437333330000001 590.27911111-1.9342222200000379 562.74488889-5.802666670000008zM566.15822222 568.09244445c23.66577778 1.13777778 44.82844445 3.64088889 44.82844445 3.64088888 21.39022222 2.27555555 18.65955555 33.67822222-2.50311112 32.31288889 0 0-63.71555555-5.00622222-104.67555555-5.00622222-38.45688889 0-103.53777778 5.00622222-103.53777778 5.00622222-20.93511111 1.36533333-23.66577778-31.17511111-2.27555555-32.31288889 0 0 19.79733333-2.50311111 41.18755555-3.64088888l61.21244445-167.70844445-86.016-257.82044445-143.13244445 425.5288889c23.89333333 1.13777778 45.056 3.64088889 45.056 3.64088888 20.93511111 2.27555555 18.65955555 33.67822222-2.50311111 32.31288889 0 0-63.488-5.00622222-104.67555556-5.00622222-7.50933333 0-16.15644445 0.22755555-25.25866666 0.45511111 70.08711111 106.496 190.91911111 176.81066667 327.90755556 176.81066667 102.4 0 195.47022222-39.13955555 265.32977777-102.85511111-1.82044445 0-3.41333333 0.22755555-5.23377777 0.22755555-38.68444445 0-65.99111111-33.67822222-65.99111112-69.85955555 0-32.31288889 18.65955555-59.61955555 38.45688889-91.93244445 15.01866667-26.16888889 32.54044445-59.84711111 32.54044445-108.31644444 0-33.67822222-10.01244445-76.00355555-29.80977778-126.74844445l-39.36711111-131.072L566.15822222 568.09244445zM709.29066667 44.25955554999996l31.17511111 90.33955556 88.74666667 256.68266667c22.528 55.97866667 29.80977778 100.80711111 29.80977777 140.62933333 0 14.336-0.91022222 27.98933333-2.50311111 40.50488889 30.72-55.97866667 48.24177778-120.14933333 48.24177778-188.64355555 0-18.20444445-1.13777778-35.95377778-3.41333334-53.47555556C884.50844445 208.09955555 811.46311111 103.65155555000001 709.29066667 44.25955554999996z"  horiz-adv-x="1024" />

    
    <glyph glyph-name="socialwordpress" unicode="&#59692;" d="M518.82666667 349.18399999999997L444.18844445 131.41333333l-0.22755556 0-57.79911111-166.34311111c4.096-1.13777778 7.96444445-2.048 12.06044444-3.18577777 0.22755555 0 0.45511111 0 0.68266667 0 35.95377778-9.55733333 73.728-14.79111111 112.64-14.79111112 19.34222222 0 38.22933333 1.13777778 56.66133333 4.096 25.48622222 3.18577778 50.06222222 8.64711111 73.95555556 16.15644445 0 0 0 0 0 0 5.91644445 1.82044445 11.83288889 3.86844445 17.74933333 5.91644444-6.37155555 13.65333333-20.02488889 43.91822222-20.70755556 45.28355556L518.82666667 349.18399999999997zM113.32266667 555.80444445c-22.75555555-51.42755555-38.22933333-114.688-38.22933334-171.80444445 0-14.336 0.68266667-28.672 2.048-42.78044445 15.70133333-162.01955555 120.37688889-298.09777778 264.192-359.31022222 5.91644445-2.50311111 12.06044445-5.00622222 18.20444445-7.28177778L147.91111111 555.57688889C129.70666667 556.25955555 126.29333333 555.12177778 113.32266667 555.80444445zM908.40177778 567.40977778c-9.78488889 21.16266667-21.39022222 41.41511111-34.36088889 60.52977777-3.64088889 5.46133333-7.73688889 10.92266667-11.60533334 16.384-48.92444445 65.536-115.59822222 116.96355555-193.19466666 147.0008889C620.544 810.43911111 567.296 820.90666667 511.77244445 820.90666667c-137.216 0-259.86844445-63.71555555-339.968-163.15733334-14.79111111-18.20444445-27.98933333-37.77422222-39.82222223-58.25422222 32.31288889-0.22755555 72.36266667-0.22755555 76.91377778-0.22755556 41.18755555 0 104.67555555 5.00622222 104.67555555 5.00622223 21.39022222 1.36533333 23.66577778-29.80977778 2.50311112-32.31288889 0 0-21.39022222-2.50311111-45.056-3.64088889l143.13244444-425.52888889 86.016 257.82044444L439.18222222 568.09244445c-21.39022222 1.13777778-41.18755555 3.64088889-41.18755555 3.64088888-21.39022222 1.13777778-18.65955555 33.67822222 2.27555555 32.31288889 0 0 64.85333333-5.00622222 103.53777778-5.00622222 41.18755555 0 104.67555555 5.00622222 104.67555555 5.00622222 21.16266667 1.36533333 23.89333333-29.80977778 2.50311112-32.31288889 0 0-21.16266667-2.50311111-44.82844445-3.64088888l141.76711111-422.34311112 39.36711112 131.072c19.79733333 50.97244445 29.80977778 93.07022222 29.80977777 126.74844445 0 48.46933333-17.52177778 82.14755555-32.54044444 108.31644444-19.79733333 32.54044445-38.45688889 59.84711111-38.45688889 91.93244445 0 36.18133333 27.30666667 69.85955555 65.99111111 69.85955555 1.59288889 0 3.41333333 0 5.00622222 0 59.61955555 1.59288889 79.18933333-57.57155555 81.69244445-97.84888889 0 0 0-0.91022222 0-1.36533333 0.91022222-16.384 0.22755555-28.44444445 0.22755555-42.78044445 0-39.59466667-7.50933333-84.42311111-29.80977777-140.62933333l-88.74666667-256.68266667-50.74488889-149.504c4.096 1.82044445 7.96444445 3.64088889 12.06044444 5.6888889 129.024 62.35022222 223.00444445 186.59555555 242.80177778 333.824 2.95822222 19.34222222 4.32355555 39.13955555 4.32355556 59.16444444C948.90666667 449.30844445 934.34311111 511.65866667 908.40177778 567.40977778z"  horiz-adv-x="1024" />

    
    <glyph glyph-name="weixin" unicode="&#58973;" d="M693.12 506.10133334c11.776 0 23.36-0.896 35.008-2.176C696.768 649.97333334 540.672 758.45333334 362.432 758.45333334 163.2 758.45333334 0 622.7093333400001 0 450.22933334c0-99.521 54.272-181.248 145.024-244.736L108.8 96.50133333999997l126.72 63.488c45.312-8.896 81.664-18.112 126.912-18.112 11.393 0 22.656 0.513 33.792 1.345-7.04 24.256-11.199 49.6-11.199 76.031C385.088 377.58933334000005 521.024 506.10133334 693.12 506.10133334zM498.304 604.34133334c27.393 0 45.376-17.984 45.376-45.248 0-27.136-17.983-45.312-45.376-45.312-27.071 0-54.336 18.176-54.336 45.312C443.968 586.42133334 471.168 604.34133334 498.304 604.34133334zM244.672 513.78133334c-27.2 0-54.592 18.176-54.592 45.312 0 27.264 27.392 45.248 54.592 45.248 27.2 0 45.248-17.92 45.248-45.248C289.92 531.95733334 271.872 513.78133334 244.672 513.78133334zM1024 223.60533334000002c0 144.896-145.023 262.976-307.904 262.976-172.479 0-308.224-118.144-308.224-262.976 0-145.28 135.808-262.977 308.224-262.977 36.097 0 72.513 9.024 108.736 18.112l99.392-54.528-27.264 90.624C969.729 69.49333334000005 1024 141.87733333999995 1024 223.60533334000002zM616.128 268.98133334c-17.984 0-36.224 17.92-36.224 36.224 0 18.048 18.239 36.225 36.224 36.225 27.521 0 45.376-18.177 45.376-36.225C661.504 286.90133333999995 643.648 268.98133334 616.128 268.98133334zM815.488 268.98133334c-17.856 0-36.032 17.92-36.032 36.224 0 18.048 18.112 36.225 36.032 36.225 27.264 0 45.376-18.177 45.376-36.225C860.864 286.90133333999995 842.752 268.98133334 815.488 268.98133334z"  horiz-adv-x="1024" />

    
    <glyph glyph-name="download" unicode="&#58916;" d="M835.82720747 706.28609067c87.0731104-86.6878304 132.15078187-196.492416 135.61829546-329.4137568-3.4675136-126.75687253-48.54518507-232.7086656-135.61829546-318.62593814-86.6878304-85.91727253-196.492416-130.60966507-329.4137568-134.0771776-126.75687253 3.4675136-232.7086656 48.15990613-318.62593814 134.0771776-85.91727253 85.91727253-130.60966507 191.8690656-134.0771776 318.62593814 3.4675136 132.5360608 48.15990613 242.7259264 134.0771776 329.4137568 85.91727253 87.0731104 191.8690656 132.15078187 318.62593814 135.61829546C639.33479147 838.43687253 749.13937707 793.3592 835.82720747 706.28609067zM676.70687787 331.7946624c-4.23807147 8.86142293-14.25533227 13.48477333-30.82234027 13.48477333l-95.54925333 0L550.33528533 631.5419168000001c0 5.39390933-1.5411168 10.0172608-5.0086304 13.87005333-3.4675136 3.85279253-7.70558507 5.77918827-13.48477333 5.77918827l-38.91320427 0c-4.62335147 0-9.24670187-1.92639573-12.71421546-5.77918827-3.85279253-3.85279253-5.77918827-8.47614293-5.77918827-13.87005333l0-286.26248107-95.54925333 0c-16.567008 0-26.58426773-4.62335147-30.82234027-13.48477333-4.23807147-8.86142293-1.5411168-19.6492416 8.090864-31.97817707l120.9776832-157.96449173c10.40253973-12.32893547 21.96091733-18.49340373 35.06041173-18.49340373s24.657872 6.16446827 35.06041174 18.49340373l120.9776832 157.96449173C678.24799573 312.1454208 680.9449504 322.93323947 676.70687787 331.7946624z"  horiz-adv-x="1024" />

    
    <glyph glyph-name="weibo" unicode="&#58918;" d="M386.119523 142.66606666999996c7.482415 12.238742 9.521864 25.157983 6.121418 38.759769-3.40147 13.598716-11.901051 23.12058-25.50079 28.559453-12.919241 5.439896-26.859741 5.439896-41.819454 0-14.959713-5.438872-26.180266-13.9405-33.660634-25.50079-8.840342-12.920264-11.56029-25.839505-8.160867-38.758746 3.400446-12.921287 11.56029-22.781866 24.480554-29.581736 12.919241-6.79987 27.200502-7.139607 42.839691-1.019213C366.060675 121.24417467 377.961726 130.42425466999998 386.119523 142.66606666999996L386.119523 142.66606666999996zM439.161576 211.00552467c3.399423 4.758374 4.078899 9.859555 2.039449 15.300474-2.039449 5.438872-5.438872 8.838296-10.200316 10.19827-4.759397 2.039449-10.199293 2.039449-16.319687 0-6.118348-2.039449-10.199293-5.438872-12.239765-10.19827-6.118348-12.240789-3.399423-21.082154 8.16189-26.52205 5.437849-1.359974 10.879792-1.01819 16.319687 1.02126C432.361707 202.84465766999995 436.441629 206.24510467000005 439.161576 211.00552467L439.161576 211.00552467zM538.101983 149.80362766999997c-16.999163-38.757722-46.921659-66.977437-89.760326-84.658122-42.839691-17.680684-85.340667-20.060895-127.501906-7.141654-40.800241 12.922311-68.681242 37.063127-83.640955 72.421426-14.959713 35.359322-13.9405 70.719668 3.060709 106.080014 18.359137 35.362392 47.260373 61.882396 86.699618 79.562057 39.441291 17.679661 79.221296 21.080108 119.342062 10.200316 42.158169-10.880815 72.41938-33.32192 90.779539-67.320245C555.441906 224.94500167 555.782667 188.56441967 538.101983 149.80362766999997zM715.58421 241.60442666999995c-3.399423 36.041868-20.060895 68.000743-49.983391 95.880721-29.918403 27.879977-69.698408 48.621371-119.338992 62.22111-49.63956 13.600763-101.660354 17.679661-156.061358 12.240789-84.319407-8.842389-154.360623-35.701107-210.120578-80.58127-55.760978-44.881187-80.921008-95.200222-75.480088-150.960177 3.399423-36.040844 20.399609-68.00279 51.000558-95.881744 30.598902-27.877931 70.040193-48.619324 118.320802-62.220087 48.279586-13.599739 100.30038-17.677615 156.060335-12.239765 84.999906 8.838296 155.040099 35.69906 210.120578 80.580247C695.184601 135.52441266999995 720.342584 185.84549567 715.58421 241.60442666999995L715.58421 241.60442666999995zM891.024941 238.54371766999998c0-25.838482-6.800893-52.018747-20.402679-78.538751-13.600763-26.521027-34.339086-52.700269-62.220087-78.540797-27.878954-25.840528-59.8409-47.941895-95.880721-66.302055-36.039821-18.358113-78.880535-34.341133-128.521119-47.940872-49.641607-13.598716-100.979856-19.379373-154.020886-17.3389s-105.400538 8.500605-157.081595 19.379373c-51.680033 10.881838-97.240695 28.220738-136.681986 52.021817-39.440267 23.799032-72.079642 52.700269-97.92017 86.701664C12.455171 141.98454467 0.215406 179.72305467 1.576403 221.20481767c0 43.522236 13.260002 90.101087 39.781028 139.740648 26.520003 49.64263 63.919798 98.601692 112.200408 146.882302 63.920822 63.920822 128.860856 108.461247 194.822151 133.6223 65.960271 25.159006 112.542192 24.139793 139.742694-3.059686 24.478508-24.480554 28.217668-64.261583 11.220552-119.342062-1.359974-5.440919-1.359974-9.18008 0-11.220552 1.359974-2.039449 3.058662-3.399423 5.099135-4.079922 2.037403-0.678452 4.758374-0.678452 8.15882 0 3.399423 0.680499 6.119371 1.360997 8.160867 2.040473l3.059686 1.020236c53.04103 22.440082 99.961666 33.660634 140.761907 33.660634s69.699432-11.56029 86.701664-34.68087c17.000186-23.800056 17.000186-57.46069 0-100.980879-0.681522-5.438872-1.699712-9.18008-3.060709-11.219529-1.357927-2.040473-0.338714-4.420683 3.060709-7.141654 3.3984-2.719948 5.779633-4.418636 7.140631-5.098111 1.360997-0.680499 4.419659-1.701758 9.181103-3.061732 21.76163-6.800893 41.479717-15.639189 59.160401-26.520003 17.681708-10.880815 32.639375-26.520003 44.881187-46.920636C883.883287 284.44411766999997 890.345466 262.34479667000005 891.024941 238.54371766999998L891.024941 238.54371766999998zM849.205487 594.52840867c15.639189-18.36016 25.838482-39.10053 30.598902-62.22111 4.758374-23.118534 3.741207-45.559639-3.059686-67.321268-3.40147-8.15882-9.18008-14.619976-17.339924-19.379373-8.160867-4.76042-16.658402-5.439896-25.499767-2.040473-8.162914 3.400446-14.623046 9.18008-19.380396 17.340947-4.758374 8.157797-5.438872 16.660448-2.040473 25.498744 7.482415 23.801079 3.059686 44.541449-13.258978 62.222133-16.319687 17.678638-36.72032 24.479531-61.200874 20.400632-8.841366-2.039449-17.337877-0.679475-25.499767 4.079922-8.16189 4.76042-12.921287 11.901051-14.281261 21.420869-2.040473 9.519818-0.338714 18.019399 5.099135 25.50079 5.439896 7.480368 12.241812 12.239765 20.401656 14.280238 23.121604 4.759397 45.899376 3.739161 68.338435-3.060709C814.523593 624.44783467 833.562205 612.20909267 849.205487 594.52840867zM952.225815 687.34842067c32.639375-36.72032 54.057173-79.221296 64.260559-127.500882 10.201339-48.28061 7.481392-93.840248-8.162914-136.681986-3.397377-10.199293-9.859555-18.018376-19.377326-23.459295-9.521864-5.438872-19.380396-6.119371-29.581736-2.039449-10.199293 4.078899-17.679661 10.539031-22.441105 19.379373-4.758374 8.841366-5.779633 18.699897-3.059686 29.580712 10.880815 31.279401 12.919241 63.919798 6.119371 97.919147-6.800893 34.001395-22.101367 63.921845-45.899376 89.76135-23.802102 26.520003-52.020794 44.539402-84.661192 54.060243-32.639375 9.519818-65.281819 11.220552-97.922217 5.100158-10.878768-2.040473-20.738323 0-29.577642 6.120394s-14.618952 14.280238-17.3389 24.480554c-2.721994 10.199293-1.019213 20.060895 5.100158 29.579689 6.118348 9.520841 14.616906 14.959713 25.50079 16.321734 46.239114 9.518794 92.478228 7.479345 138.721435-6.120394C880.144126 750.24900567 919.585417 724.7492386700001 952.225815 687.34842067L952.225815 687.34842067z"  horiz-adv-x="1024" />

    
    <glyph glyph-name="file-baidupan" unicode="&#58957;" d="M866.76619264 63.84049606999997c-2.62936235 0.69193728-5.12033792 1.38387456-7.74970027 2.07581298-23.38748871 6.36582571-39.30205298 28.36943986-37.64140259 51.89531648 1.79903715 24.90975232 20.20457586 44.69916558 44.56077767 47.88207844 27.67750144 3.59807545 53.27919104-16.05295104 57.29242908-43.86884154 3.87485013-26.70878947-14.80746325-52.03370325-41.93141532-56.87726648-1.10709987-0.13838791-2.21419975-0.69193728-3.32129963-1.10709988H866.76619264zM920.87570887 303.66605085000003c-9.41035065 53.00241635-35.84236544 96.04093155-78.46571804 128.83877091-30.72202752 23.52587662-65.45729195 37.22624-104.06740651 41.10109127-7.05776299 0.69193728-14.11552597 0.9687131-21.45006478 1.52226247 4.84356323 46.91336533-4.70517533 90.36704427-29.33815183 130.36103339-24.49458973 39.71721557-58.53791687 69.05536739-102.40675726 84.69315584-80.12636843 28.50782663-153.05658595 13.70036338-214.77741454-44.28400299-48.57401571-45.52949077-68.22504221-103.51385714-62.412767-170.07824896 47.60530375-0.83032519 89.39833117-15.77617635 126.76295907-44.83755349-44.56077767 54.38629091-21.58845155 120.12035869 12.73165028 147.65947335 37.50301469 30.16847701 97.00964466 33.21300195 137.69557219-6.08905102 33.62816455-32.52106467 41.37786595-84.55476793 16.32972573-126.34779648-12.73165141-21.31167687-30.99880221-36.53430272-54.6630656-44.56077767-32.52106467-10.93261312-63.24309219-6.36582571-92.16608143 11.76293831 0.69193728-1.24548779 1.38387456-2.07581298 2.21419976-2.90613817 19.23586389-20.61973845 33.76655246-44.14561507 43.45367779-70.71601664 1.10709987-3.04452494 1.10709987-5.12033792-1.24548665-7.7497014-1.52226247-1.66065038-3.04452494-3.32130077-4.56678855-5.12033679 0.13838791 1.52226247-0.27677469 3.18291285-0.96871196 5.12033679-14.53068857 38.6101157-38.88689038 69.74730467-71.82311765 94.2418944-31.69073949 23.52587662-67.53310493 36.67269063-106.83515791 39.02527829-26.15523897 1.52226247-37.77979051 4.70517533-65.59567985-1.79903829-9.96390115-2.90613817-10.65583843-3.32130077-20.34296378-7.05776299 0.27677469-0.55355051 0.41516259-0.9687131 0.69193728-1.52226247 22.28038883 3.45968754 38.33333987-6.36582571 50.92660452-25.6016896 15.36101376-23.24910194 5.95066311-48.71240363-12.1781009-69.74730468 46.08304128 16.88327623 76.25151829 5.95066311 108.49580714-31.8291274 31.13719011-36.67269063 32.38267677-77.63539285 11.76293831-120.12035754-0.69193728-0.83032519-1.52226247-1.66065038-2.21419975-2.49097558-25.74007637-30.16847701-57.84597959-42.48496583-96.73286997-36.94946531-42.20819001 5.95066311-76.11313038 39.30205298-84.69315584 82.20218141-8.30325077 41.65464064 11.20938781 85.80025571 47.74369052 106.97354467 21.31167687 12.31648882 31.69073949 40.27076494 20.75812751 64.76535467-12.73165141 28.64621454-45.25271609 37.50301469-67.39471816 26.29362688-24.77136441-12.5932635-45.52949077-30.86041429-62.412767-53.00241636C105.08133945 345.18230357000004 92.34968803 288.58181176999994 104.52778894 226.72259527000006c15.36101376-78.46571805 81.2334683-143.50784739 159.83757426-158.59208647 8.58002546-1.66065038 17.29843883-2.90613817 26.01685219-4.29001273h31.55235158c4.29001273 0.69193728 8.58002546 1.52226247 12.87003818 2.07581298 48.29724103 7.05776299 89.67510585 28.09266403 122.19617167 64.35019207 61.4440539 68.22504221 122.05778375 137.14202169 182.80990037 205.9206144 13.83875129 15.63778845 30.4452517 26.57040157 50.51144078 32.38267677 55.35500402 16.19133895 115.13840754-18.26715079 127.87005896-74.59086792 2.49097557-10.93261312 2.35258766-22.41877675 4.01323804-33.62816455 3.32130077-24.07942713 24.2178139-42.34657792 48.57401572-43.0385152 25.04813909-0.69193728 47.05175325 15.77617635 51.61854065 39.99399026 2.90613817 15.36101376 1.24548779 30.99880221-1.52226247 46.35981597z"  horiz-adv-x="1024" />

    
    <glyph glyph-name="left" unicode="&#58889;" d="M592.99912109 834L323.00263672 384l269.99648437-450h107.99824219L431.00087891 384 700.99736328 834z"  horiz-adv-x="1024" />

    
    <glyph glyph-name="right" unicode="&#58890;" d="M431.00087891-66l269.99648437 450L431.00087891 834H323.00263672l269.99648437-450-269.99648437-450z"  horiz-adv-x="1024" />

    
    <glyph glyph-name="qq" unicode="&#59522;" d="M869.50281481 245.91762963999997c-18.20444445 58.48177778-39.13955555 107.63377778-71.33866666 188.07466666C803.17037037 645.27762964 715.33392593 816.1718518600001 513.03703704 816.1718518600001 308.46459259 816.1718518600001 222.56237037 641.8642963 228.02370371 433.9922963c-32.31288889-80.55466667-53.13422222-129.36533333-71.33866667-188.07466666-38.68444445-124.58666667-26.16888889-176.128-16.61155556-177.26577779 20.48-2.50311111 79.75822222 93.75288889 79.75822223 93.75288889 0-55.75111111 28.672-128.45511111 90.79466665-180.90666665-30.03733333-9.216-97.50755555-34.01955555-81.46488888-61.21244445 12.97066667-21.95911111 223.232-13.99466667 283.87555556-7.16800001 60.64355555-6.82666667 270.90488889-14.79111111 283.87555555 7.16800001 16.04266667 27.07911111-51.54133333 51.99644445-81.46488889 61.21244445 62.12266667 52.56533333 90.79466667 125.26933333 90.79466667 180.90666665 0 0 59.27822222-96.256 79.75822222-93.75288889 9.67111111 1.25155555 22.18666667 52.79288889-16.49777778 177.26577779z"  horiz-adv-x="1024" />

    
    <glyph glyph-name="facebook" unicode="&#58891;" d="M767.88508025 535.0563555L614.13704805 535.0563555 614.13704805 632.76479736c0 36.6834975 25.07865844 45.26110311 42.76737281 45.26110312 17.63318813 0 108.48487406 0 108.48487406 0L765.38929399 839.32303518l-149.41791188 0.58807593c-165.89575125 0-203.64330094-120.313035-203.64330094-197.31609561l0-107.53866-95.92898437 0 0-166.21413189 95.92898437 0 0-470.40151968 201.80799189 0L614.13607399 368.84222361 750.26650492 368.84222361 767.88508025 535.0563555z"  horiz-adv-x="1024" />

    
    <glyph glyph-name="linkedin" unicode="&#58927;" d="M664.91733333 537.4293333400001a283.01843001 283.01843001 0 0 1-283.98933333-282.53297778v-285.44568889a43.69066667 43.69066667 0 0 1 43.69066667-43.69066667h101.94488888a43.69066667 43.69066667 0 0 1 43.69066667 43.69066667v285.44568889a94.17765888 94.17765888 0 0 0 104.37214777 93.69220778 97.09036999 97.09036999 0 0 0 84.95407446-97.09037112v-282.04752555a43.69066667 43.69066667 0 0 1 43.69066666-43.69066667h101.94488889a43.69066667 43.69066667 0 0 1 43.69066667 43.69066667v285.44568889a283.01843001 283.01843001 0 0 1-283.98933334 282.53297778zM75.09333333 493.73866667m43.69066667 0l131.072 0q43.69066667 0 43.69066667-43.69066667l0-480.59733333q0-43.69066667-43.69066667-43.69066667l-131.072 0q-43.69066667 0-43.69066667 43.69066667l0 480.59733333q0 43.69066667 43.69066667 43.69066667ZM184.32 690.34666667m-109.22666667 0a109.22666667 109.22666667 0 1 1 218.45333334 0 109.22666667 109.22666667 0 1 1-218.45333334 0Z"  horiz-adv-x="1024" />

    
    <glyph glyph-name="home--line" unicode="&#58938;" d="M554.666667 85.333333h256V470.272l-298.666667 232.277333-298.666667-232.277333V85.333333h256v256h85.333334v-256z m341.333333-42.666666a42.666667 42.666667 0 0 0-42.666667-42.666667H170.666667a42.666667 42.666667 0 0 0-42.666667 42.666667V491.093333a42.666667 42.666667 0 0 0 16.469333 33.706667l341.333334 265.472a42.666667 42.666667 0 0 0 52.394666 0l341.333334-265.472a42.666667 42.666667 0 0 0 16.469333-33.706667V42.666667z"  horiz-adv-x="1024" />

    
    <glyph glyph-name="home--fill" unicode="&#58939;" d="M896 42.666667a42.666667 42.666667 0 0 0-42.666667-42.666667H170.666667a42.666667 42.666667 0 0 0-42.666667 42.666667V491.093333a42.666667 42.666667 0 0 0 16.469333 33.706667l341.333334 265.472a42.666667 42.666667 0 0 0 52.394666 0l341.333334-265.472a42.666667 42.666667 0 0 0 16.469333-33.706667V42.666667z m-426.666667 298.666666v-256h85.333334v256h-85.333334z"  horiz-adv-x="1024" />

    
    <glyph glyph-name="store--fill" unicode="&#58943;" d="M938.666667 42.666667v-85.333334H85.333333v85.333334h42.666667v288.341333A191.829333 191.829333 0 0 0 42.666667 490.666667c0 35.285333 9.557333 69.290667 27.008 98.261333L185.386667 789.333333a42.666667 42.666667 0 0 0 36.949333 21.333334H801.706667a42.666667 42.666667 0 0 0 36.949333-21.333334l115.285333-199.765333A191.829333 191.829333 0 0 0 896 331.008V42.666667h42.666667zM246.997333 725.333333L143.189333 545.578667a106.666667 106.666667 0 0 1 190.549334-94.549334c14.293333 35.712 64.853333 35.712 79.189333 0a106.666667 106.666667 0 0 1 198.144 0c14.293333 35.712 64.853333 35.712 79.189333 0a106.666667 106.666667 0 1 1 190.165334 95.232L776.96 725.333333H247.04z"  horiz-adv-x="1024" />

    
    <glyph glyph-name="store--line" unicode="&#58944;" d="M896 331.008V42.666667h42.666667v-85.333334H85.333333v85.333334h42.666667v288.341333A191.829333 191.829333 0 0 0 42.666667 490.666667c0 35.285333 9.557333 69.290667 27.008 98.261333L185.386667 789.333333a42.666667 42.666667 0 0 0 36.949333 21.333334H801.706667a42.666667 42.666667 0 0 0 36.949333-21.333334l115.285333-199.765333A191.829333 191.829333 0 0 0 896 331.008z m-85.333333-31.146667a191.829333 191.829333 0 0 0-160 58.026667A191.829333 191.829333 0 0 0 512 298.624a191.829333 191.829333 0 0 0-138.666667 59.178667A191.829333 191.829333 0 0 0 213.333333 299.818667V42.666667h597.333334v257.152zM246.997333 725.333333L143.189333 545.578667a106.666667 106.666667 0 0 1 190.549334-94.549334c14.293333 35.712 64.853333 35.712 79.189333 0a106.666667 106.666667 0 0 1 198.144 0c14.293333 35.712 64.853333 35.712 79.189333 0a106.666667 106.666667 0 1 1 190.165334 95.232L776.96 725.333333H247.04z"  horiz-adv-x="1024" />

    
    <glyph glyph-name="send-plane-fill" unicode="&#58970;" d="M83.029333 498.56c-22.272 7.424-22.485333 19.413333 0.426667 27.050667l814.378667 271.445333c22.570667 7.509333 35.498667-5.12 29.184-27.221333l-232.704-814.336c-6.4-22.570667-19.413333-23.338667-28.970667-1.92L512 298.666667l256 341.333333-341.333333-256-343.637334 114.56z"  horiz-adv-x="1024" />

    
    <glyph glyph-name="chat--line" unicode="&#59004;" d="M616.533333 85.333333L512-64 407.466667 85.333333H128a42.666667 42.666667 0 0 0-42.666667 42.666667V725.333333a42.666667 42.666667 0 0 0 42.666667 42.666667h768a42.666667 42.666667 0 0 0 42.666667-42.666667v-597.333333a42.666667 42.666667 0 0 0-42.666667-42.666667h-279.466667z m-44.416 85.333334H853.333333V682.666667H170.666667v-512h281.216L512 84.821333 572.117333 170.666667z"  horiz-adv-x="1024" />

    
    <glyph glyph-name="message--line" unicode="&#59011;" d="M275.413333 85.333333L85.333333-64V725.333333a42.666667 42.666667 0 0 0 42.666667 42.666667h768a42.666667 42.666667 0 0 0 42.666667-42.666667v-597.333333a42.666667 42.666667 0 0 0-42.666667-42.666667H275.413333z m-29.525333 85.333334H853.333333V682.666667H170.666667v-571.093334L245.888 170.666667zM469.333333 469.333333h85.333334v-85.333333h-85.333334v85.333333z m-170.666666 0h85.333333v-85.333333H298.666667v85.333333z m341.333333 0h85.333333v-85.333333h-85.333333v85.333333z"  horiz-adv-x="1024" />

    
    <glyph glyph-name="message--fill" unicode="&#59012;" d="M275.413333 85.333333L85.333333-64V725.333333a42.666667 42.666667 0 0 0 42.666667 42.666667h768a42.666667 42.666667 0 0 0 42.666667-42.666667v-597.333333a42.666667 42.666667 0 0 0-42.666667-42.666667H275.413333zM298.666667 469.333333v-85.333333h85.333333v85.333333H298.666667z m170.666666 0v-85.333333h85.333334v85.333333h-85.333334z m170.666667 0v-85.333333h85.333333v85.333333h-85.333333z"  horiz-adv-x="1024" />

    
    <glyph glyph-name="article-fill" unicode="&#59017;" d="M853.333333-42.66666699999996H170.666667a42.666667 42.666667 0 0 0-42.666667 42.666667V768a42.666667 42.666667 0 0 0 42.666667 42.666667h682.666666a42.666667 42.666667 0 0 0 42.666667-42.666667v-768a42.666667 42.666667 0 0 0-42.666667-42.666667zM298.666667 640v-170.666667h170.666666V640H298.666667z m0-256v-85.333333h426.666666v85.333333H298.666667z m0-170.666667v-85.333333h426.666666v85.333333H298.666667z m256 384v-85.333333h170.666666V597.333333h-170.666666z"  horiz-adv-x="1024" />

    
    <glyph glyph-name="article-line" unicode="&#59016;" d="M853.333333-42.66666699999996H170.666667a42.666667 42.666667 0 0 0-42.666667 42.666667V768a42.666667 42.666667 0 0 0 42.666667 42.666667h682.666666a42.666667 42.666667 0 0 0 42.666667-42.666667v-768a42.666667 42.666667 0 0 0-42.666667-42.666667z m-42.666666 85.333334V725.333333H213.333333v-682.666666h597.333334zM298.666667 640h170.666666v-170.666667H298.666667V640z m0-256h426.666666v-85.333333H298.666667v85.333333z m0-170.666667h426.666666v-85.333333H298.666667v85.333333z m256 384h170.666666v-85.333333h-170.666666V597.333333z"  horiz-adv-x="1024" />

    
    <glyph glyph-name="file-lock-line" unicode="&#59034;" d="M640 725.333333H213.333333v-682.666666h597.333334V554.666667h-170.666667V725.333333zM128 768.341333C128 791.722667 147.072 810.666667 170.624 810.666667H682.666667l213.333333-213.333334v-597.034666A42.666667 42.666667 0 0 0 853.632-42.666667H170.368A42.666667 42.666667 0 0 0 128-0.341333V768.341333zM640 426.666667h42.666667v-213.333334H341.333333v213.333334h42.666667v42.666666a128 128 0 0 0 256 0v-42.666666z m-85.333333 0v42.666666a42.666667 42.666667 0 0 1-85.333334 0v-42.666666h85.333334z"  horiz-adv-x="1024" />

    
    <glyph glyph-name="file-code-line" unicode="&#59036;" d="M640 725.333333H213.333333v-682.666666h597.333334V554.666667h-170.666667V725.333333zM128 768.341333C128 791.722667 147.072 810.666667 170.624 810.666667H682.666667l213.333333-213.333334v-597.034666A42.666667 42.666667 0 0 0 853.632-42.666667H170.368A42.666667 42.666667 0 0 0 128-0.341333V768.341333zM753.365333 384l-150.869333-150.869333-60.330667 60.373333L632.661333 384l-90.453333 90.496 60.288 60.373333L753.365333 384zM270.634667 384L421.546667 534.869333l60.330666-60.373333L391.338667 384l90.453333-90.496-60.288-60.373333L270.634667 384z"  horiz-adv-x="1024" />

    
    <glyph glyph-name="file-music-line" unicode="&#59037;" d="M682.666667 554.666667v-85.333334h-128v-192a106.666667 106.666667 0 1 0-85.333334 104.533334V554.666667h170.666667V725.333333H213.333333v-682.666666h597.333334V554.666667h-128zM128 768.341333C128 791.722667 147.072 810.666667 170.624 810.666667H682.666667l213.333333-213.333334v-597.034666A42.666667 42.666667 0 0 0 853.632-42.666667H170.368A42.666667 42.666667 0 0 0 128-0.341333V768.341333z"  horiz-adv-x="1024" />

    
    <glyph glyph-name="file-ppt-line" unicode="&#59038;" d="M128 768.341333C128 791.722667 147.072 810.666667 170.624 810.666667H682.666667l213.333333-213.333334v-597.034666A42.666667 42.666667 0 0 0 853.632-42.666667H170.368A42.666667 42.666667 0 0 0 128-0.341333V768.341333zM213.333333 725.333333v-682.666666h597.333334V554.666667h-128v-256h-256v-85.333334H341.333333V554.666667h298.666667V725.333333H213.333333z m213.333334-256v-85.333333h170.666666v85.333333h-170.666666z"  horiz-adv-x="1024" />

    
    <glyph glyph-name="file-text-line" unicode="&#59042;" d="M896 554.666667v-554.368A42.666667 42.666667 0 0 0 853.632-42.666667H170.368A42.368 42.368 0 0 0 128-0.341333V768.341333C128 791.253333 147.157333 810.666667 170.752 810.666667h469.12L896 554.666667z m-85.333333-42.666667h-213.333334V725.333333H213.333333v-682.666666h597.333334V512zM341.333333 597.333333h128v-85.333333H341.333333V597.333333z m0-170.666666h341.333334v-85.333334H341.333333v85.333334z m0-170.666667h341.333334v-85.333333H341.333333v85.333333z"  horiz-adv-x="1024" />

    
    <glyph glyph-name="file-zip-line" unicode="&#59049;" d="M853.333333-42.666667H170.666667a42.666667 42.666667 0 0 0-42.666667 42.666667V768a42.666667 42.666667 0 0 0 42.666667 42.666667h682.666666a42.666667 42.666667 0 0 0 42.666667-42.666667v-768a42.666667 42.666667 0 0 0-42.666667-42.666667z m-42.666666 85.333334V725.333333H213.333333v-682.666666h597.333334z m-213.333334 341.333333v-213.333333h-170.666666v128h85.333333v85.333333h85.333333z m-85.333333 341.333333h85.333333v-85.333333h-85.333333V725.333333z m-85.333333-85.333333h85.333333v-85.333333h-85.333333V640z m85.333333-85.333333h85.333333v-85.333334h-85.333333V554.666667z m-85.333333-85.333334h85.333333v-85.333333h-85.333333v85.333333z"  horiz-adv-x="1024" />

    
    <glyph glyph-name="file-word-line" unicode="&#59061;" d="M682.666667 554.666667v-341.333334h-85.333334l-85.333333 85.333334-85.333333-85.333334H341.333333V554.666667h85.333334v-213.333334l85.333333 85.333334 85.333333-85.333334V554.666667h42.666667V725.333333H213.333333v-682.666666h597.333334V554.666667h-128zM128 768.341333C128 791.722667 147.072 810.666667 170.624 810.666667H682.666667l213.333333-213.333334v-597.034666A42.666667 42.666667 0 0 0 853.632-42.666667H170.368A42.666667 42.666667 0 0 0 128-0.341333V768.341333z"  horiz-adv-x="1024" />

    
    <glyph glyph-name="numbers-line" unicode="&#59063;" d="M384 128H170.666667v341.333333h213.333333v-341.333333z m-85.333333 85.333333v170.666667H256v-170.666667h42.666667z m256 0V554.666667h-42.666667v-341.333334h42.666667z m85.333333-85.333333h-213.333333V640h213.333333v-512z m170.666667 85.333333V725.333333h-42.666667v-512h42.666667z m85.333333-85.333333h-213.333333V810.666667h213.333333v-682.666667z m42.666667-170.666667H128v85.333334h810.666667v-85.333334z"  horiz-adv-x="1024" />

    
    <glyph glyph-name="todo-line" unicode="&#59065;" d="M725.333333 810.666667h128a42.666667 42.666667 0 0 0 42.666667-42.666667v-768a42.666667 42.666667 0 0 0-42.666667-42.666667H170.666667a42.666667 42.666667 0 0 0-42.666667 42.666667V768a42.666667 42.666667 0 0 0 42.666667 42.666667h128V896h85.333333v-85.333333h256V896h85.333333v-85.333333z m0-85.333334v-85.333333h-85.333333V725.333333H384v-85.333333H298.666667V725.333333H213.333333v-682.666666h597.333334V725.333333h-85.333334zM298.666667 554.666667h426.666666v-85.333334H298.666667V554.666667z m0-170.666667h426.666666v-85.333333H298.666667v85.333333z"  horiz-adv-x="1024" />

    
    <glyph glyph-name="qq-fill" unicode="&#59080;" d="M828.51999969 282.84000000000003a1279.08 1279.08 0 0 1-27 75.43999969l-36.39999938 89.84000062c0 1.03999969 0.48 18.72 0.48 27.84C765.60000031 629.59999969 692.28000031 784.00000031 512 784.00000031S258.39999969 629.59999969 258.39999969 475.99999969c0-9.16000031 0.43999969-26.83999969 0.48-27.87999938l-36.39999938-89.84000062a1311.07999969 1311.07999969 0 0 1-27-75.43999969c-34.39999969-109.48000031-23.23999969-154.8-14.76-155.80000031 18.19999969-2.16 70.84000031 82.39999969 70.83999938 82.40000062 0-48.96 25.48000031-112.87999969 80.64-159.04000031-20.59999969-6.28000031-45.88000031-15.96-62.16-27.79999969-14.59999969-10.68-12.76000031-21.6-10.11999938-26.00000062 11.56000031-19.24000031 198.19999969-12.28000031 252.12-6.27999938 53.88-6 240.55999969-12.96 252.07999969 6.31999969 2.64 4.39999969 4.48000031 15.28000031-10.12000031 25.96000031-16.27999969 11.83999969-41.56000031 21.52000031-62.19999938 27.84 55.15999969 46.12000031 80.64 110.04 80.64 159.03999938 0 0 52.63999969-84.6 70.83999938-82.39999969 8.47999969 1.00000031 19.60000031 46.27999969-14.79999938 155.76"  horiz-adv-x="1024" />

    
    <glyph glyph-name="weibo-fill" unicode="&#59085;" d="M732.99999969 408.88000031c50.52-15.67999969 106.75999969-53.44000031 106.76000062-120.16000031 0-110.52-159.19999969-249.55999969-398.56000031-249.55999969-182.59999969 0-369.19999969 88.51999969-369.19999969 234.07999969 0 76.08 48.16000031 164.08000031 131.07999938 247.08 110.92000031 110.80000031 240.16000031 161.32000031 288.76000031 112.63999969 21.48-21.48 23.52-58.56 9.76000031-102.87999938-7.12000031-22.27999969 21-10.00000031 21-10.00000031 89.59999969 37.51999969 167.83999969 39.76000031 196.35999938-1.08 15.19999969-21.72 13.72000031-52.24000031-0.31999969-87.6-6.52000031-16.27999969 1.92-18.84 14.4-22.51999969z m-291.27999938-317.56000031c145.63999969 14.47999969 256.03999969 103.68 246.67999969 199.32-9.48 95.64-135.28000031 161.52-280.92 147.07999969-145.60000031-14.4-256.12000031-103.60000031-246.67999969-199.2 9.48-95.76 135.28000031-161.56000031 280.92-147.19999969zM278.40000031 286.48000031000004c30.16000031 61.08 108.48 95.59999969 177.84 77.59999969 71.71999969-18.52000031 108.28000031-86.16 79.03999969-151.99999969-29.76-67.27999969-115.27999969-103.12000031-187.8-79.72000031-70.08 22.63999969-99.72 91.75999969-69.07999969 154.12000031z m57.84-103.48000031c22.72000031-10.27999969 52.99999969-0.52000031 67.03999969 22.00000031 13.84000031 22.72000031 6.52000031 48.67999969-16.27999969 58.35999938-22.51999969 9.48-51.64000031-0.31999969-65.60000062-22.11999938-14.16-21.88000031-7.56-48.07999969 14.84000062-58.24000031z m88.23999938 72.31999969c8.76-3.67999969 20.04 0.48 25.12000031 9.24 4.92 8.80000031 1.75999969 18.64000031-7.12000031 21.92000062-8.64 3.36-19.44-0.72-24.51999938-9.28000031-4.92-8.56000031-2.16-18.31999969 6.51999938-21.88000031zM826.92000031 484.00000031a28.99999969 28.99999969 0 1 0-55.12000031 18.03999938 55.2 55.2 0 0 1-11.52 54.28000031 55.8 55.8 0 0 1-52.84000031 16.99999969 28.92 28.92 0 1 0-12.12 56.64 113.44000031 113.44000031 0 0 0 131.60000062-145.95999938z m-156.64000031 262.99999969A233.23999969 233.23999969 0 0 0 891.99999969 675.19999969a233.44000031 233.44000031 0 0 0 48.80000062-228.15999938 33.52000031 33.52000031 0 0 0-42.40000031-21.6 33.76000031 33.76000031 0 0 0-21.67999969 42.48 165.72 165.72 0 0 1-192.28000031 213.07999969 33.79999969 33.79999969 0 0 0-14.16 66z"  horiz-adv-x="1024" />

    
    <glyph glyph-name="wechat-fill" unicode="&#59086;" d="M774.96000031 315.55999969000004a36.40000031 36.40000031 0 0 1 35.91999938 35.92000031c0 19.92-15.96 35.92000031-35.91999938 35.92000031s-35.92000031-16.00000031-35.92000031-35.92000031c0-19.99999969 16.00000031-35.92000031 35.92000031-35.92000031z m-177 0a36.40000031 36.40000031 0 0 1 35.91999938 35.92000031c0 19.92-16.00000031 35.92000031-35.91999938 35.92000031-19.99999969 0-35.92000031-16.00000031-35.92000031-35.92000031 0-19.99999969 15.96-35.92000031 35.92000031-35.92000031z m262.68-201.6a13.87999969 13.87999969 0 0 1-6.88000031-14.79999938c0-1.92 0-3.88000031 1.00000031-5.88 3.91999969-16.68 11.76-43.24000031 11.76-44.24000062 0-2.92000031 1.00000031-4.87999969 0.99999938-6.87999938a8.80000031 8.80000031 0 0 0-8.83999969-8.80000031c-1.99999969 0-2.95999969 0.96-4.92 1.92l-57.96 33.43999969a31.96000031 31.96000031 0 0 1-13.75999969 3.92000062c-2.92000031 0-5.88 0-7.84000031-0.96-27.52000031-7.87999969-55.99999969-11.80000031-86.44000031-11.80000031-146.4 0-264.28000031 98.28-264.27999938 220.2 0 121.87999969 117.88000031 220.2 264.27999938 220.2 146.35999969 0 264.24-98.32000031 264.24-220.2 0-65.88-35.35999969-125.83999969-91.35999938-166.15999969zM698.91999969 540.04000031a364.2 364.2 0 0 1-11.19999938 0.19999969c-166.96000031 0-304.24000031-114.40000031-304.24000031-260.20000031 0-22.15999969 3.19999969-43.60000031 9.12-63.99999938h-3.55999969a398.52 398.52 0 0 0-103.36000031 14.71999969c-2.95999969 1.00000031-5.92000031 1.00000031-8.88 1.00000031a33.28000031 33.28000031 0 0 1-16.72000031-4.92l-69.91999969-40.2c-1.99999969-1.00000031-3.96-1.99999969-5.92000031-2.00000062a10.92 10.92 0 0 0-10.8 10.8c0 2.95999969 0.96 4.92 1.96000031 7.88000062 0.96 0.96 9.84 33.36 14.76 52.95999938 0 1.99999969 0.96 4.92 0.96 6.88000031a22.24000031 22.24000031 0 0 1-8.83999969 17.68000031C114.32 328.96000031000005 72.00000031 400.56 72.00000031 480.07999969 72.00000031 626.20000031 214.80000031 744 390.00000031 744c150.6 0 277.2-86.76 308.91999938-203.92000031z m-206.16-16.72000031c22.92 0 41.04 19.08 41.04 41.04 0 22.92-18.12 41.04-41.04 41.04s-41.04-18.12-41.04-41.04 18.12-41.04 41.04-41.04z m-210.39999938 0c22.92 0 41.08000031 19.08 41.07999938 41.04 0 22.92-18.16000031 41.04-41.07999938 41.04-22.87999969 0-41.04-18.12-41.04-41.04s18.16000031-41.04 41.04-41.04z"  horiz-adv-x="1024" />

    
    <glyph glyph-name="navigation-fill" unicode="&#59111;" d="M123.733333 797.866667l802.346667-267.434667a21.333333 21.333333 0 0 0 1.194667-40.064L554.666667 341.333333l-188.8-377.6a21.333333 21.333333 0 0 0-39.594667 3.669334L96.426667 771.797333A21.333333 21.333333 0 0 0 123.733333 797.866667z"  horiz-adv-x="1024" />

    
    <glyph glyph-name="k-line" unicode="&#59127;" d="M170.666667 682.666667v-597.333334h682.666666V682.666667H170.666667zM128 768h768a42.666667 42.666667 0 0 0 42.666667-42.666667v-682.666666a42.666667 42.666667 0 0 0-42.666667-42.666667H128a42.666667 42.666667 0 0 0-42.666667 42.666667V725.333333a42.666667 42.666667 0 0 0 42.666667 42.666667z m362.666667-448h-42.666667V256H384v64H256V512h64v-128H384V512h64v-128h42.666667v-64zM768 256h-74.666667l-74.666666 96V256H554.666667V512h64v-96L693.333333 512H768l-96-128L768 256z"  horiz-adv-x="1024" />

    
    <glyph glyph-name="dvd-line" unicode="&#59132;" d="M512-42.666667C276.352-42.666667 85.333333 148.352 85.333333 384S276.352 810.666667 512 810.666667s426.666667-191.018667 426.666667-426.666667-191.018667-426.666667-426.666667-426.666667z m0 85.333334a341.333333 341.333333 0 1 1 0 682.666666 341.333333 341.333333 0 0 1 0-682.666666z m42.666667 384h128l-213.333334-298.666667v213.333333H341.333333l213.333334 298.666667v-213.333333z"  horiz-adv-x="1024" />

    
    <glyph glyph-name="dvd-fill" unicode="&#59133;" d="M554.666667 426.666667V640l-213.333334-298.666667h128v-213.333333l213.333334 298.666667h-128z m-42.666667-469.333334C276.352-42.666667 85.333333 148.352 85.333333 384S276.352 810.666667 512 810.666667s426.666667-191.018667 426.666667-426.666667-191.018667-426.666667-426.666667-426.666667z"  horiz-adv-x="1024" />

    
    <glyph glyph-name="film-line" unicode="&#59135;" d="M85.333333 725.632A42.666667 42.666667 0 0 0 127.658667 768h768.682666c23.381333 0 42.325333-18.986667 42.325334-42.368v-683.264a42.666667 42.666667 0 0 0-42.325334-42.368H127.658667A42.368 42.368 0 0 0 85.333333 42.368V725.632zM341.333333 682.666667v-597.333334h341.333334V682.666667H341.333333zM170.666667 682.666667v-85.333334h85.333333V682.666667H170.666667z m597.333333 0v-85.333334h85.333333V682.666667h-85.333333zM170.666667 512v-85.333333h85.333333V512H170.666667z m597.333333 0v-85.333333h85.333333V512h-85.333333zM170.666667 341.333333v-85.333333h85.333333v85.333333H170.666667z m597.333333 0v-85.333333h85.333333v85.333333h-85.333333zM170.666667 170.666667v-85.333334h85.333333v85.333334H170.666667z m597.333333 0v-85.333334h85.333333v85.333334h-85.333333z"  horiz-adv-x="1024" />

    
    <glyph glyph-name="equalizer-line" unicode="&#59134;" d="M263.253333 128a128.042667 128.042667 0 0 0 241.493334 0H938.666667v-85.333333H504.746667a128.042667 128.042667 0 0 0-241.493334 0H85.333333v85.333333h177.92z m256 298.666667a128.042667 128.042667 0 0 0 241.493334 0H938.666667v-85.333334h-177.92a128.042667 128.042667 0 0 0-241.493334 0H85.333333v85.333334h433.92z m-256 298.666666a128.042667 128.042667 0 0 0 241.493334 0H938.666667v-85.333333H504.746667a128.042667 128.042667 0 0 0-241.493334 0H85.333333V725.333333h177.92zM384 640a42.666667 42.666667 0 1 1 0 85.333333 42.666667 42.666667 0 0 1 0-85.333333z m256-298.666667a42.666667 42.666667 0 1 1 0 85.333334 42.666667 42.666667 0 0 1 0-85.333334z m-256-298.666666a42.666667 42.666667 0 1 1 0 85.333333 42.666667 42.666667 0 0 1 0-85.333333z"  horiz-adv-x="1024" />

    
    <glyph glyph-name="hd-line" unicode="&#59137;" d="M170.666667 682.666667v-597.333334h682.666666V682.666667H170.666667zM128 768h768a42.666667 42.666667 0 0 0 42.666667-42.666667v-682.666666a42.666667 42.666667 0 0 0-42.666667-42.666667H128a42.666667 42.666667 0 0 0-42.666667 42.666667V725.333333a42.666667 42.666667 0 0 0 42.666667 42.666667z m192-352h85.333333V512H469.333333v-256H405.333333v96h-85.333333V256H256V512h64v-96z m298.666667 32v-128H682.666667a21.333333 21.333333 0 0 1 21.333333 21.333333v85.333334a21.333333 21.333333 0 0 1-21.333333 21.333333h-64zM554.666667 512h128a85.333333 85.333333 0 0 0 85.333333-85.333333v-85.333334a85.333333 85.333333 0 0 0-85.333333-85.333333h-128V512z"  horiz-adv-x="1024" />

    
    <glyph glyph-name="image--fill" unicode="&#59136;" d="M213.333333 422.4l85.333334 85.333333 234.666666-234.666666 149.333334 149.333333 128-128V682.666667H213.333333v-260.266667zM170.666667 768h682.666666a42.666667 42.666667 0 0 0 42.666667-42.666667v-682.666666a42.666667 42.666667 0 0 0-42.666667-42.666667H170.666667a42.666667 42.666667 0 0 0-42.666667 42.666667V725.333333a42.666667 42.666667 0 0 0 42.666667 42.666667z m490.666666-298.666667a64 64 0 1 0 0 128 64 64 0 0 0 0-128z"  horiz-adv-x="1024" />

    
    <glyph glyph-name="image-line" unicode="&#59138;" d="M205.994667 0l-0.853334-0.853333-0.896 0.853333H127.658667A42.368 42.368 0 0 0 85.333333 42.368V725.632A42.666667 42.666667 0 0 0 127.658667 768h768.682666c23.381333 0 42.325333-18.986667 42.325334-42.368v-683.264a42.666667 42.666667 0 0 0-42.325334-42.368H205.994667zM853.333333 256V682.666667H170.666667v-597.333334L597.333333 512l256-256z m0-120.661333l-256 256L291.328 85.333333H853.333333v50.005334zM341.333333 426.666667a85.333333 85.333333 0 1 0 0 170.666666 85.333333 85.333333 0 0 0 0-170.666666z"  horiz-adv-x="1024" />

    
    <glyph glyph-name="hq-line" unicode="&#59140;" d="M170.666667 682.666667v-597.333334h682.666666V682.666667H170.666667zM128 768h768a42.666667 42.666667 0 0 0 42.666667-42.666667v-682.666666a42.666667 42.666667 0 0 0-42.666667-42.666667H128a42.666667 42.666667 0 0 0-42.666667 42.666667V725.333333a42.666667 42.666667 0 0 0 42.666667 42.666667z m192-352h85.333333V512H469.333333v-256H405.333333v96h-85.333333V256H256V512h64v-96zM693.333333 256v-64h-64V256H597.333333a42.666667 42.666667 0 0 0-42.666666 42.666667v170.666666a42.666667 42.666667 0 0 0 42.666666 42.666667h128a42.666667 42.666667 0 0 0 42.666667-42.666667v-170.666666a42.666667 42.666667 0 0 0-42.666667-42.666667h-32z m-74.666666 192v-128h85.333333v128h-85.333333z"  horiz-adv-x="1024" />

    
    <glyph glyph-name="movie--line" unicode="&#59139;" d="M512 42.666667h341.333333v-85.333334h-341.333333C276.352-42.666667 85.333333 148.352 85.333333 384S276.352 810.666667 512 810.666667s426.666667-191.018667 426.666667-426.666667a424.789333 424.789333 0 0 0-85.333334-256h-115.541333A341.333333 341.333333 0 1 1 512 42.666667z m0 426.666666a85.333333 85.333333 0 1 0 0 170.666667 85.333333 85.333333 0 0 0 0-170.666667z m-170.666667-170.666666a85.333333 85.333333 0 1 0 0 170.666666 85.333333 85.333333 0 0 0 0-170.666666z m341.333334 0a85.333333 85.333333 0 1 0 0 170.666666 85.333333 85.333333 0 0 0 0-170.666666z m-170.666667-170.666667a85.333333 85.333333 0 1 0 0 170.666667 85.333333 85.333333 0 0 0 0-170.666667z"  horiz-adv-x="1024" />

    
    <glyph glyph-name="music-line" unicode="&#59141;" d="M512 318.506667V768h341.333333v-85.333333h-256v-512a170.666667 170.666667 0 1 0-85.333333 147.84zM426.666667 85.333333a85.333333 85.333333 0 1 1 0 170.666667 85.333333 85.333333 0 0 1 0-170.666667z"  horiz-adv-x="1024" />

    
    <glyph glyph-name="music-fill" unicode="&#59142;" d="M512 318.506667V768h341.333333v-128h-256v-469.333333a170.666667 170.666667 0 1 0-85.333333 147.84z"  horiz-adv-x="1024" />

    
    <glyph glyph-name="play-fill" unicode="&#59150;" d="M826.709333 366.250667L374.485333 64.768A21.333333 21.333333 0 0 0 341.333333 82.517333V685.482667a21.333333 21.333333 0 0 0 33.152 17.749333l452.224-301.482667a21.333333 21.333333 0 0 0 0-35.498666z"  horiz-adv-x="1024" />

    
    <glyph glyph-name="play-line" unicode="&#59151;" d="M699.477333 384L426.666667 565.888v-363.776L699.477333 384z m127.232-17.749333L374.485333 64.768A21.333333 21.333333 0 0 0 341.333333 82.517333V685.482667a21.333333 21.333333 0 0 0 33.152 17.749333l452.224-301.482667a21.333333 21.333333 0 0 0 0-35.498666z"  horiz-adv-x="1024" />

    
    <glyph glyph-name="sound-module-line" unicode="&#59163;" d="M896 128v-128h-85.333333v128h-85.333334v85.333333h256v-85.333333h-85.333333zM213.333333 128v-128H128v128H42.666667v85.333333h256v-85.333333H213.333333z m256 512V768h85.333334v-128h85.333333v-85.333333H384V640h85.333333z m0-170.666667h85.333334v-469.333333h-85.333334V469.333333z m-341.333333-170.666666V768h85.333333v-469.333333H128z m682.666667 0V768h85.333333v-469.333333h-85.333333z"  horiz-adv-x="1024" />

    
    <glyph glyph-name="vidicon-line" unicode="&#59172;" d="M725.333333 503.466667l222.421334 155.733333a21.333333 21.333333 0 0 0 33.578666-17.493333v-515.413334a21.333333 21.333333 0 0 0-33.578666-17.493333L725.333333 264.533333V85.333333a42.666667 42.666667 0 0 0-42.666666-42.666666H85.333333a42.666667 42.666667 0 0 0-42.666666 42.666666V682.666667a42.666667 42.666667 0 0 0 42.666666 42.666666h597.333334a42.666667 42.666667 0 0 0 42.666666-42.666666v-179.2z m0-134.784l170.666667-119.466667V518.826667l-170.666667-119.466667v-30.634667zM128 640v-512h512V640H128z m85.333333-85.333333h85.333334v-85.333334H213.333333V554.666667z"  horiz-adv-x="1024" />

    
    <glyph glyph-name="arrow-down-s-line" unicode="&#59179;" d="M512 333.994667l211.2 211.2 60.330667-60.330667L512 213.333333 240.469333 484.864 300.8 545.194667z"  horiz-adv-x="1024" />

    
    <glyph glyph-name="arrow-drop-down-line" unicode="&#59180;" d="M512 256l-181.034667 181.034667 60.373334 60.330666L512 376.661333l120.661333 120.704 60.373334-60.330666z"  horiz-adv-x="1024" />

    
    <glyph glyph-name="arrow-drop-down-fill" unicode="&#59181;" d="M512 298.666667l-170.666667 170.666666h341.333334z"  horiz-adv-x="1024" />

    
    <glyph glyph-name="arrow-left-fill" unicode="&#59185;" d="M512 341.333333v-298.666666l-341.333333 341.333333 341.333333 341.333333v-298.666666h341.333333v-85.333334z"  horiz-adv-x="1024" />

    
    <glyph glyph-name="arrow-drop-up-line" unicode="&#59194;" d="M512 391.338667l-120.661333-120.704-60.373334 60.330666L512 512l181.034667-181.034667-60.373334-60.330666L512 391.338667z"  horiz-adv-x="1024" />

    
    <glyph glyph-name="arrow-left-s-line" unicode="&#59186;" d="M461.994667 384l211.2-211.2-60.330667-60.330667L341.333333 384l271.530667 271.530667 60.330667-60.330667z"  horiz-adv-x="1024" />

    
    <glyph glyph-name="arrow-left-s-fill" unicode="&#59187;" d="M341.333333 384l256 256v-512z"  horiz-adv-x="1024" />

    
    <glyph glyph-name="arrow-right-fill" unicode="&#59188;" d="M512 341.333333H170.666667v85.333334h341.333333V725.333333l341.333333-341.333333-341.333333-341.333333z"  horiz-adv-x="1024" />

    
    <glyph glyph-name="arrow-right-s-fill" unicode="&#59189;" d="M682.666667 384l-256-256V640z"  horiz-adv-x="1024" />

    
    <glyph glyph-name="arrow-right-s-line" unicode="&#59190;" d="M562.005333 384l-211.2 211.2 60.330667 60.330667L682.666667 384l-271.530667-271.530667-60.330667 60.330667z"  horiz-adv-x="1024" />

    
    <glyph glyph-name="arrow-up-fill" unicode="&#59192;" d="M554.666667 384v-341.333333h-85.333334v341.333333H170.666667l341.333333 341.333333 341.333333-341.333333z"  horiz-adv-x="1024" />

    
    <glyph glyph-name="arrow-up-s-line" unicode="&#59195;" d="M512 434.005333l-211.2-211.2-60.330667 60.330667L512 554.666667l271.530667-271.530667-60.330667-60.330667z"  horiz-adv-x="1024" />

    
    <glyph glyph-name="close-fill" unicode="&#59201;" d="M512 444.330667l211.2 211.2 60.330667-60.330667-211.2-211.2 211.2-211.2-60.330667-60.330667-211.2 211.2-211.2-211.2-60.330667 60.330667 211.2 211.2-211.2 211.2L300.8 655.530667z"  horiz-adv-x="1024" />

    
    <glyph glyph-name="close-circle-line" unicode="&#59200;" d="M512-42.666667C276.352-42.666667 85.333333 148.352 85.333333 384S276.352 810.666667 512 810.666667s426.666667-191.018667 426.666667-426.666667-191.018667-426.666667-426.666667-426.666667z m0 85.333334a341.333333 341.333333 0 1 1 0 682.666666 341.333333 341.333333 0 0 1 0-682.666666z m0 401.664l120.661333 120.704 60.373334-60.373334L572.330667 384l120.704-120.661333-60.373334-60.373334L512 323.669333l-120.661333-120.704-60.373334 60.373334L451.669333 384 330.965333 504.661333l60.373334 60.373334L512 444.330667z"  horiz-adv-x="1024" />

    
    <glyph glyph-name="download--line" unicode="&#59209;" d="M554.666667 469.333333h213.333333l-256-256-256 256h213.333333V768h85.333334v-298.666667z m-384-384h682.666666v298.666667h85.333334v-341.333333a42.666667 42.666667 0 0 0-42.666667-42.666667H128a42.666667 42.666667 0 0 0-42.666667 42.666667v341.333333h85.333334v-298.666667z"  horiz-adv-x="1024" />

    
    <glyph glyph-name="download-line" unicode="&#59211;" d="M128 85.333333h768v-85.333333H128v85.333333z m426.666667 248.661334L813.696 593.066667l60.330667-60.330667L512 170.666667 149.973333 532.693333 210.304 593.066667 469.333333 334.08V810.666667h85.333334v-476.672z"  horiz-adv-x="1024" />

    
    <glyph glyph-name="eye-line" unicode="&#59213;" d="M512 768c230.058667 0 421.461333-165.546667 461.610667-384-40.106667-218.453333-231.552-384-461.610667-384-230.058667 0-421.461333 165.546667-461.610667 384C90.496 602.453333 281.941333 768 512 768z m0-682.666667a384.213333 384.213333 0 0 1 374.485333 298.666667 384.213333 384.213333 0 0 1-748.970666 0A384.213333 384.213333 0 0 1 512 85.333333z m0 106.666667a192 192 0 1 0 0 384 192 192 0 0 0 0-384z m0 85.333333a106.666667 106.666667 0 1 1 0 213.333334 106.666667 106.666667 0 0 1 0-213.333334z"  horiz-adv-x="1024" />

    
    <glyph glyph-name="heart-line" unicode="&#59220;" d="M512-42.666667l-392.192 392.192c-93.013333 109.568-88.149333 273.92 15.061333 377.173334A277.333333 277.333333 0 0 0 512 740.693333a277.333333 277.333333 0 0 0 391.637333-390.570666L512-42.666667z m326.912 448.384a192 192 0 0 1-271.146667 270.378667L512 627.968l-55.765333 48.128a192 192 0 0 1-271.146667-270.378667l4.864-5.632L512 77.994667l322.048 322.090666 4.864 5.632z"  horiz-adv-x="1024" />

    
    <glyph glyph-name="login-box-line" unicode="&#59225;" d="M170.666667 256h85.333333v-213.333333h512V725.333333H256v-213.333333H170.666667V768a42.666667 42.666667 0 0 0 42.666666 42.666667h597.333334a42.666667 42.666667 0 0 0 42.666666-42.666667v-768a42.666667 42.666667 0 0 0-42.666666-42.666667H213.333333a42.666667 42.666667 0 0 0-42.666666 42.666667v256z m256 170.666667V554.666667l213.333333-170.666667-213.333333-170.666667v128H85.333333v85.333334h341.333334z"  horiz-adv-x="1024" />

    
    <glyph glyph-name="menu-line" unicode="&#59230;" d="M128 725.333333h768v-85.333333H128V725.333333z m0-298.666666h768v-85.333334H128v85.333334z m0-298.666667h768v-85.333333H128v85.333333z"  horiz-adv-x="1024" />

    
    <glyph glyph-name="moon-fill" unicode="&#59231;" d="M384 576a320 320 0 0 1 553.856-218.453333C924.202667 134.272 738.773333-42.666667 512-42.666667 276.352-42.666667 85.333333 148.352 85.333333 384c0 226.773333 176.896 412.202667 400.213334 425.856A319.146667 319.146667 0 0 1 384 576z"  horiz-adv-x="1024" />

    
    <glyph glyph-name="moon-line" unicode="&#59232;" d="M170.666667 384a341.333333 341.333333 0 0 1 642.645333-160.512A384 384 0 0 0 351.488 685.312 341.290667 341.290667 0 0 1 170.666667 384z m256 213.333333a298.666667 298.666667 0 0 1 512-209.066666v-4.266667c0-235.648-191.018667-426.666667-426.666667-426.666667S85.333333 148.352 85.333333 384 276.352 810.666667 512 810.666667h4.266667A297.770667 297.770667 0 0 1 426.666667 597.333333z"  horiz-adv-x="1024" />

    
    <glyph glyph-name="qr-scan--line" unicode="&#59233;" d="M640 768h256v-213.333333h-85.333333V682.666667h-170.666667V768zM384 768v-85.333333H213.333333v-128H128V768h256z m256-768v85.333333h170.666667v128h85.333333v-213.333333h-256z m-256 0H128v213.333333h85.333333v-128h170.666667v-85.333333zM128 426.666667h768v-85.333334H128v85.333334z"  horiz-adv-x="1024" />

    
    <glyph glyph-name="radio-button-line" unicode="&#59237;" d="M512-85.33333366C276.352-85.33333366 85.333333 105.68533334000006 85.333333 341.33333333999997S276.352 768.00000034 512 768.00000034s426.666667-191.018667 426.666667-426.666667-191.018667-426.666667-426.666667-426.666667z m0 85.333334a341.333333 341.333333 0 1 1 0 682.666666 341.333333 341.333333 0 0 1 0-682.666666z m0 128a213.333333 213.333333 0 1 0 0 426.666666 213.333333 213.333333 0 0 0 0-426.666666z"  horiz-adv-x="1024" />

    
    <glyph glyph-name="refresh-line" unicode="&#59236;" d="M233.088 706.858667A425.002667 425.002667 0 0 0 512 810.666667c235.648 0 426.666667-191.018667 426.666667-426.666667 0-91.136-28.586667-175.616-77.226667-244.906667L725.333333 384h128A341.333333 341.333333 0 0 1 275.626667 630.272l-42.538667 76.586667z m557.824-645.717334A425.002667 425.002667 0 0 0 512-42.666667C276.352-42.666667 85.333333 148.352 85.333333 384c0 91.136 28.586667 175.616 77.226667 244.906667L298.666667 384H170.666667a341.333333 341.333333 0 0 1 577.706666-246.272l42.538667-76.586667z"  horiz-adv-x="1024" />

    
    <glyph glyph-name="search-line" unicode="&#59241;" d="M769.322667 187.008l182.741333-182.698667-60.373333-60.373333-182.698667 182.741333A382.293333 382.293333 0 0 0 469.333333 42.666667c-211.968 0-384 172.032-384 384s172.032 384 384 384 384-172.032 384-384a382.293333 382.293333 0 0 0-84.010666-239.658667z m-85.589334 31.658667A297.685333 297.685333 0 0 1 768 426.666667c0 165.034667-133.674667 298.666667-298.666667 298.666666-165.034667 0-298.666667-133.632-298.666666-298.666666 0-164.992 133.632-298.666667 298.666666-298.666667a297.685333 297.685333 0 0 1 208 84.266667l6.4 6.4z"  horiz-adv-x="1024" />

    
    <glyph glyph-name="settings--line" unicode="&#59242;" d="M370.602667 725.333333l111.232 111.232a42.666667 42.666667 0 0 0 60.330666 0L653.397333 725.333333H810.666667a42.666667 42.666667 0 0 0 42.666666-42.666666v-157.269334l111.232-111.232a42.666667 42.666667 0 0 0 0-60.330666L853.333333 242.602667V85.333333a42.666667 42.666667 0 0 0-42.666666-42.666666h-157.269334l-111.232-111.232a42.666667 42.666667 0 0 0-60.330666 0L370.602667 42.666667H213.333333a42.666667 42.666667 0 0 0-42.666666 42.666666v157.269334l-111.232 111.232a42.666667 42.666667 0 0 0 0 60.330666L170.666667 525.397333V682.666667a42.666667 42.666667 0 0 0 42.666666 42.666666h157.269334zM256 640v-149.973333L149.973333 384 256 277.973333V128h149.973333L512 21.973333 618.026667 128H768v149.973333L874.026667 384 768 490.026667V640h-149.973333L512 746.026667 405.973333 640H256z m256-426.666667a170.666667 170.666667 0 1 0 0 341.333334 170.666667 170.666667 0 0 0 0-341.333334z m0 85.333334a85.333333 85.333333 0 1 1 0 170.666666 85.333333 85.333333 0 0 1 0-170.666666z"  horiz-adv-x="1024" />

    
    <glyph glyph-name="share-box-fill" unicode="&#59246;" d="M426.666667 768v-85.333333H213.333333v-597.333334h597.333334v213.333334h85.333333v-256a42.666667 42.666667 0 0 0-42.666667-42.666667H170.666667a42.666667 42.666667 0 0 0-42.666667 42.666667V725.333333a42.666667 42.666667 0 0 0 42.666667 42.666667h256z m328.832-200.832L512 323.669333 451.669333 384l243.498667 243.498667L554.666667 768h341.333333v-341.333333l-140.501333 140.501333z"  horiz-adv-x="1024" />

    
    <glyph glyph-name="share-circle-fill" unicode="&#59247;" d="M469.333333 808.533333v-85.845333A341.376 341.376 0 0 1 512 42.666667a341.376 341.376 0 0 1 338.688 298.666666h85.888c-21.418667-215.594667-203.349333-384-424.576-384-235.648 0-426.666667 191.018667-426.666667 426.666667 0 221.226667 168.405333 403.157333 384 424.533333z m328.832-198.698666L512 323.669333 451.669333 384l286.165334 286.165333L597.333333 810.666667h341.333334v-341.333334l-140.501334 140.501334z"  horiz-adv-x="1024" />

    
    <glyph glyph-name="share-circle-line" unicode="&#59245;" d="M469.333333 808.533333v-85.845333A341.376 341.376 0 0 1 512 42.666667a341.376 341.376 0 0 1 338.688 298.666666h85.888c-21.418667-215.594667-203.349333-384-424.576-384-235.648 0-426.666667 191.018667-426.666667 426.666667 0 221.226667 168.405333 403.157333 384 424.533333z m384-143.530666l-341.333333-341.333334L451.669333 384l341.333334 341.333333H597.333333V810.666667h341.333334v-341.333334h-85.333334V665.002667z"  horiz-adv-x="1024" />

    
    <glyph glyph-name="share-forward-fill" unicode="&#59248;" d="M554.666667 298.666667h-85.333334a383.957333 383.957333 0 0 1-339.968-205.226667A432.469333 432.469333 0 0 0 128 128C128 363.648 319.018667 554.666667 554.666667 554.666667V768l426.666666-341.333333-426.666666-341.333334v213.333334z"  horiz-adv-x="1024" />

    
    <glyph glyph-name="settings-line" unicode="&#59244;" d="M512 781.33333303l379.99999969-219.99999938v-440.00000062L512-98.66666635000001l-379.99999969 219.99999938v440.00000062L512 781.33333303z m0-92.43999938L212 515.21333334v-347.76l300-173.68000031 300 173.68000031V515.21333334L512 688.8933336499999zM512 181.33333302999995a160.00000031 160.00000031 0 1 0 0 320.00000062 160.00000031 160.00000031 0 0 0 0-320.00000062z m0 80.00000062a79.99999969 79.99999969 0 1 1 0 159.99999938 79.99999969 79.99999969 0 0 1 0-159.99999938z"  horiz-adv-x="1024" />

    
    <glyph glyph-name="shut-down-line" unicode="&#59252;" d="M267.306667 733.568l48.938666-69.930667a341.333333 341.333333 0 1 1 391.509334 0l48.938666 69.930667A426.154667 426.154667 0 0 0 938.666667 384c0-235.648-191.018667-426.666667-426.666667-426.666667S85.333333 148.352 85.333333 384a426.154667 426.154667 0 0 0 181.973334 349.568zM469.333333 384V810.666667h85.333334v-426.666667h-85.333334z"  horiz-adv-x="1024" />

    
    <glyph glyph-name="thumb-up-fill" unicode="&#59258;" d="M85.333333 512h128v-512H85.333333a42.666667 42.666667 0 0 0-42.666666 42.666667V469.333333a42.666667 42.666667 0 0 0 42.666666 42.666667z m225.834667 55.168l273.066667 273.066667a21.333333 21.333333 0 0 0 27.904 2.005333l36.394666-27.306667a64 64 0 0 0 23.594667-66.986666L622.933333 554.666667H896a85.333333 85.333333 0 0 0 85.333333-85.333334v-89.770666a85.333333 85.333333 0 0 0-6.4-32.512l-132.053333-320.64a42.666667 42.666667 0 0 0-39.466667-26.410667H341.333333a42.666667 42.666667 0 0 0-42.666666 42.666667V537.002667a42.666667 42.666667 0 0 0 12.501333 30.165333z"  horiz-adv-x="1024" />

    
    <glyph glyph-name="thumb-up-line" unicode="&#59257;" d="M622.933333 554.666667H896a85.333333 85.333333 0 0 0 85.333333-85.333334v-89.770666a85.333333 85.333333 0 0 0-6.4-32.512l-132.053333-320.64a42.666667 42.666667 0 0 0-39.466667-26.410667H85.333333a42.666667 42.666667 0 0 0-42.666666 42.666667V469.333333a42.666667 42.666667 0 0 0 42.666666 42.666667h148.565334a42.666667 42.666667 0 0 1 34.858666 18.048L501.418667 859.733333a21.333333 21.333333 0 0 0 26.965333 6.784l77.397333-38.698666a106.666667 106.666667 0 0 0 55.68-121.728L622.933333 554.666667zM298.666667 444.245333V85.333333h476.16L896 379.562667V469.333333h-273.066667a85.333333 85.333333 0 0 0-82.688 106.368l38.528 151.381334a21.333333 21.333333 0 0 1-11.136 24.362666l-28.202666 14.08-200.96-284.672c-10.666667-15.104-24.32-27.477333-39.808-36.608zM213.333333 426.666667H128v-341.333334h85.333333v341.333334z"  horiz-adv-x="1024" />

    
    <glyph glyph-name="account-circle-line" unicode="&#59270;" d="M512-42.666667C276.352-42.666667 85.333333 148.352 85.333333 384S276.352 810.666667 512 810.666667s426.666667-191.018667 426.666667-426.666667-191.018667-426.666667-426.666667-426.666667z m-212.778667 159.744A339.882667 339.882667 0 0 1 512 42.666667a340.053333 340.053333 0 0 1 220.458667 80.725333A297.770667 297.770667 0 0 1 518.826667 213.333333a297.856 297.856 0 0 1-219.605334-96.256zM239.616 178.346667A382.933333 382.933333 0 0 0 518.826667 298.666667a382.805333 382.805333 0 0 0 271.445333-112.384 341.333333 341.333333 0 1 1-550.656-7.978667zM512 341.333333a170.666667 170.666667 0 1 0 0 341.333334 170.666667 170.666667 0 0 0 0-341.333334z m0 85.333334a85.333333 85.333333 0 1 1 0 170.666666 85.333333 85.333333 0 0 1 0-170.666666z"  horiz-adv-x="1024" />

    
    <glyph glyph-name="account-pin-circle-line" unicode="&#59271;" d="M415.786667 10.879999659999953C226.474667 54.52799965999998 85.333333 224.12799966 85.333333 426.66666666 85.333333 662.3146666600001 276.352 853.33333366 512 853.33333366s426.666667-191.018667 426.666667-426.666667c0-202.538667-141.141333-372.138667-330.453334-415.786667L512-85.33333333999997l-96.213333 96.213333z m-116.608 148.821334a339.328 339.328 0 0 1 135.765333-65.664l23.893333-5.504L512 35.327999660000046l53.205333 53.205334 23.893334 5.546666a339.456 339.456 0 0 1 143.36 71.936A297.770667 297.770667 0 0 1 518.826667 255.99999965999996c-86.869333 0-165.12-37.12-219.648-96.298666zM239.616 221.01333365999994A382.933333 382.933333 0 0 0 518.826667 341.33333366a382.805333 382.805333 0 0 0 271.445333-112.384 341.333333 341.333333 0 1 1-550.656-7.978667zM512 383.99999965999996a170.666667 170.666667 0 1 0 0 341.333334 170.666667 170.666667 0 0 0 0-341.333334z m0 85.333334a85.333333 85.333333 0 1 1 0 170.666666 85.333333 85.333333 0 0 1 0-170.666666z"  horiz-adv-x="1024" />

    
    <glyph glyph-name="user-star-line" unicode="&#59285;" d="M512 298.666667v-85.333334a256 256 0 0 1-256-256H170.666667a341.333333 341.333333 0 0 0 341.333333 341.333334z m0 42.666666c-141.44 0-256 114.56-256 256s114.56 256 256 256 256-114.56 256-256-114.56-256-256-256z m0 85.333334c94.293333 0 170.666667 76.373333 170.666667 170.666666s-76.373333 170.666667-170.666667 170.666667-170.666667-76.373333-170.666667-170.666667 76.373333-170.666667 170.666667-170.666666z m256-448l-125.397333-65.92 23.936 139.605333-101.418667 98.901333 140.202667 20.394667L768 298.666667l62.72-127.018667 140.16-20.394667-101.418667-98.901333 23.893334-139.605333L768-21.333333z"  horiz-adv-x="1024" />

    
    <glyph glyph-name="exchange-dollar-fill" unicode="&#59295;" d="M229.248 703.573333A425.045333 425.045333 0 0 0 512 810.666667c235.648 0 426.666667-191.018667 426.666667-426.666667a424.704 424.704 0 0 0-76.501334-243.84L746.666667 384H853.333333A341.333333 341.333333 0 0 1 267.690667 622.378667l-38.4 81.152z m565.504-639.146666A425.045333 425.045333 0 0 0 512-42.66666699999996C276.352-42.66666699999996 85.333333 148.35199999999998 85.333333 384c0 90.666667 28.288 174.72 76.501334 243.84L277.333333 384H170.666667a341.333333 341.333333 0 0 1 585.642666-238.378667l38.4-81.152zM362.666667 298.66666699999996H597.333333a21.333333 21.333333 0 1 1 0 42.666666h-170.666666a106.666667 106.666667 0 1 0 0 213.333334h42.666666V597.333333h85.333334v-42.666666h106.666666v-85.333334H426.666667a21.333333 21.333333 0 1 1 0-42.666666h170.666666a106.666667 106.666667 0 1 0 0-213.333334h-42.666666v-42.666666h-85.333334v42.666666H362.666667v85.333334z"  horiz-adv-x="1024" />

    
    <glyph glyph-name="exchange-funds-fill" unicode="&#59296;" d="M229.248 703.573333A425.045333 425.045333 0 0 0 512 810.666667c235.648 0 426.666667-191.018667 426.666667-426.666667a424.704 424.704 0 0 0-76.501334-243.84L746.666667 384H853.333333A341.333333 341.333333 0 0 1 267.690667 622.378667l-38.4 81.152z m565.504-639.146666A425.045333 425.045333 0 0 0 512-42.666667C276.352-42.666667 85.333333 148.352 85.333333 384c0 90.666667 28.288 174.72 76.501334 243.84L277.333333 384H170.666667a341.333333 341.333333 0 0 1 585.642666-238.378667l38.4-81.152z m-222.421333 198.912L451.669333 384l-120.704-120.661333-60.330666 60.330666 181.034666 180.992L572.330667 384l120.704 120.661333 60.330666-60.330666-181.034666-180.992z"  horiz-adv-x="1024" />

    
    <glyph glyph-name="money-dollar-box-fill" unicode="&#59299;" d="M102.4 793.6h819.2a45.51111147 45.51111147 0 0 0 45.51111147-45.51111147v-728.17777706a45.51111147 45.51111147 0 0 0-45.51111147-45.51111147H102.4a45.51111147 45.51111147 0 0 0-45.51111147 45.51111147V748.08888853a45.51111147 45.51111147 0 0 0 45.51111147 45.51111147z m250.31111147-500.62222187v-91.02222293H466.48888853v-91.02222187h91.02222294v91.02222187h45.5111104a113.77777813 113.77777813 0 1 1 0 227.55555627h-182.04444374a22.7555552 22.7555552 0 1 0 0 45.5111104h250.3111104V566.0444448000001H557.51111147V657.06666667h-91.02222294v-91.02222187h-45.5111104a113.77777813 113.77777813 0 0 1 0-227.55555627h182.04444374a22.7555552 22.7555552 0 1 0 0-45.5111104H352.71111147z"  horiz-adv-x="1024" />

    
    <glyph glyph-name="money-dollar-circle-fill" unicode="&#59300;" d="M512-71.11111146999997C260.64213333-71.11111146999997 56.88888853 132.64213332999998 56.88888853 384S260.64213333 839.11111147 512 839.11111147s455.11111147-203.7532448 455.11111147-455.11111147-203.7532448-455.11111147-455.11111147-455.11111147z m-159.28888853 364.0888896v-91.02222293H466.48888853v-91.02222187h91.02222294v91.02222187h45.5111104a113.77777813 113.77777813 0 1 1 0 227.55555627h-182.04444374a22.7555552 22.7555552 0 1 0 0 45.5111104h250.3111104V566.0444448000001H557.51111147V657.06666667h-91.02222294v-91.02222187h-45.5111104a113.77777813 113.77777813 0 0 1 0-227.55555627h182.04444374a22.7555552 22.7555552 0 1 0 0-45.5111104H352.71111147z"  horiz-adv-x="1024" />

    
    <glyph glyph-name="price-tag--fill" unicode="&#59304;" d="M465.066667 806.4l422.357333-60.373333 60.330667-422.4-392.192-392.192a42.666667 42.666667 0 0 0-60.330667 0l-422.4 422.4a42.666667 42.666667 0 0 0 0 60.330666L465.066667 806.4z m120.661333-362.069333a85.333333 85.333333 0 1 1 120.661333 120.704 85.333333 85.333333 0 0 1-120.661333-120.704z"  horiz-adv-x="1024" />

    
    <glyph glyph-name="price-tag--line" unicode="&#59305;" d="M465.066667 806.4l422.357333-60.373333 60.330667-422.4-392.192-392.192a42.666667 42.666667 0 0 0-60.330667 0l-422.4 422.4a42.666667 42.666667 0 0 0 0 60.330666L465.066667 806.4z m30.165333-90.538667L163.328 384l362.069333-362.026667 331.861334 331.861334-45.226667 316.8-316.8 45.226666z m90.453333-271.530666a85.333333 85.333333 0 1 0 120.746667 120.704 85.333333 85.333333 0 0 0-120.746667-120.704z"  horiz-adv-x="1024" />

    
    <glyph glyph-name="red-packet-fill" unicode="&#59306;" d="M896 642.688A511.36 511.36 0 0 0 605.610667 477.866667a106.666667 106.666667 0 0 1-187.221334 0A511.36 511.36 0 0 0 128 642.688V768a42.666667 42.666667 0 0 0 42.666667 42.666667h682.666666a42.666667 42.666667 0 0 0 42.666667-42.666667v-125.312z m0-118.912V0a42.666667 42.666667 0 0 0-42.666667-42.666667H170.666667a42.666667 42.666667 0 0 0-42.666667 42.666667V523.776A594.944 594.944 0 0 1 410.88 392.533333a106.709333 106.709333 0 0 1 202.24 0A594.944 594.944 0 0 1 896 523.776z"  horiz-adv-x="1024" />

    
    <glyph glyph-name="red-packet-line" unicode="&#59307;" d="M604.714667 479.445333A425.813333 425.813333 0 0 1 810.666667 591.317333V725.333333H213.333333v-134.016a425.813333 425.813333 0 0 1 205.952-111.872 106.666667 106.666667 0 0 0 185.429334 0z m8.874666-85.333333a106.709333 106.709333 0 0 0-203.178666 0A509.44 509.44 0 0 0 213.333333 480.042667V42.666667h597.333334V480.085333a509.44 509.44 0 0 0-197.077334-86.016zM170.666667 810.666667h682.666666a42.666667 42.666667 0 0 0 42.666667-42.666667v-768a42.666667 42.666667 0 0 0-42.666667-42.666667H170.666667a42.666667 42.666667 0 0 0-42.666667 42.666667V768a42.666667 42.666667 0 0 0 42.666667 42.666667z"  horiz-adv-x="1024" />

    
    <glyph glyph-name="shopping-bag--fill" unicode="&#59308;" d="M853.333333-42.666667H170.666667a42.666667 42.666667 0 0 0-42.666667 42.666667V768a42.666667 42.666667 0 0 0 42.666667 42.666667h682.666666a42.666667 42.666667 0 0 0 42.666667-42.666667v-768a42.666667 42.666667 0 0 0-42.666667-42.666667zM384 640H298.666667v-85.333333a213.333333 213.333333 0 0 1 426.666666 0V640h-85.333333v-85.333333a128 128 0 0 0-256 0V640z"  horiz-adv-x="1024" />

    
    <glyph glyph-name="shopping-cart-line" unicode="&#59309;" d="M170.666667 213.333333V725.333333H85.333333V810.666667h128a42.666667 42.666667 0 0 0 42.666667-42.666667v-512h530.688l85.333333 341.333333H341.333333V682.666667h585.386667a42.666667 42.666667 0 0 0 41.386667-53.034667l-106.666667-426.666667a42.666667 42.666667 0 0 0-41.386667-32.298666H213.333333a42.666667 42.666667 0 0 0-42.666666 42.666666z m85.333333-298.666666a85.333333 85.333333 0 1 0 0 170.666666 85.333333 85.333333 0 0 0 0-170.666666z m512 0a85.333333 85.333333 0 1 0 0 170.666666 85.333333 85.333333 0 0 0 0-170.666666z"  horiz-adv-x="1024" />

    
    <glyph glyph-name="shopping-bag-fill" unicode="&#59310;" d="M298.666667 554.666667V640a213.333333 213.333333 0 1 0 426.666666 0v-85.333333h128a42.666667 42.666667 0 0 0 42.666667-42.666667v-512a42.666667 42.666667 0 0 0-42.666667-42.666667H170.666667a42.666667 42.666667 0 0 0-42.666667 42.666667V512a42.666667 42.666667 0 0 0 42.666667 42.666667h128z m85.333333 0h256V640a128 128 0 0 1-256 0v-85.333333z"  horiz-adv-x="1024" />

    
    <glyph glyph-name="shopping-bag-line" unicode="&#59311;" d="M298.666667 554.666667V640a213.333333 213.333333 0 1 0 426.666666 0v-85.333333h128a42.666667 42.666667 0 0 0 42.666667-42.666667v-512a42.666667 42.666667 0 0 0-42.666667-42.666667H170.666667a42.666667 42.666667 0 0 0-42.666667 42.666667V512a42.666667 42.666667 0 0 0 42.666667 42.666667h128z m0-85.333334H213.333333v-426.666666h597.333334V469.333333h-85.333334v-85.333333h-85.333333v85.333333H384v-85.333333H298.666667v85.333333z m85.333333 85.333334h256V640a128 128 0 0 1-256 0v-85.333333z"  horiz-adv-x="1024" />

    
    <glyph glyph-name="shopping-bag--line" unicode="&#59312;" d="M853.333333-42.666667H170.666667a42.666667 42.666667 0 0 0-42.666667 42.666667V768a42.666667 42.666667 0 0 0 42.666667 42.666667h682.666666a42.666667 42.666667 0 0 0 42.666667-42.666667v-768a42.666667 42.666667 0 0 0-42.666667-42.666667z m-42.666666 85.333334V725.333333H213.333333v-682.666666h597.333334zM384 640v-85.333333a128 128 0 0 1 256 0V640h85.333333v-85.333333A213.333333 213.333333 0 0 0 298.666667 554.666667V640h85.333333z"  horiz-adv-x="1024" />

    
    <glyph glyph-name="shopping-cart-fill" unicode="&#59313;" d="M256 512h594.688l21.333333 85.333333H341.333333V682.666667h585.386667a42.666667 42.666667 0 0 0 41.386667-53.034667l-106.666667-426.666667a42.666667 42.666667 0 0 0-41.386667-32.298666H213.333333a42.666667 42.666667 0 0 0-42.666666 42.666666V725.333333H85.333333V810.666667h128a42.666667 42.666667 0 0 0 42.666667-42.666667v-256z m0-597.333333a85.333333 85.333333 0 1 0 0 170.666666 85.333333 85.333333 0 0 0 0-170.666666z m512 0a85.333333 85.333333 0 1 0 0 170.666666 85.333333 85.333333 0 0 0 0-170.666666z"  horiz-adv-x="1024" />

    
    <glyph glyph-name="shopping-bag--fill1" unicode="&#59314;" d="M277.333333 810.666667h469.333334a42.666667 42.666667 0 0 0 34.133333-17.066667L896 640v-640a42.666667 42.666667 0 0 0-42.666667-42.666667H170.666667a42.666667 42.666667 0 0 0-42.666667 42.666667V640l115.2 153.6a42.666667 42.666667 0 0 0 34.133333 17.066667z m512-170.666667L725.333333 725.333333H298.666667L234.666667 640h554.666666zM384 469.333333H298.666667v-85.333333a213.333333 213.333333 0 0 1 426.666666 0v85.333333h-85.333333v-85.333333a128 128 0 0 0-256 0v85.333333z"  horiz-adv-x="1024" />

    
    <glyph glyph-name="shopping-bag--line1" unicode="&#59315;" d="M277.333333 810.666667h469.333334a42.666667 42.666667 0 0 0 34.133333-17.066667L896 640v-640a42.666667 42.666667 0 0 0-42.666667-42.666667H170.666667a42.666667 42.666667 0 0 0-42.666667 42.666667V640l115.2 153.6a42.666667 42.666667 0 0 0 34.133333 17.066667zM810.666667 554.666667H213.333333v-512h597.333334V554.666667z m-21.333334 85.333333L725.333333 725.333333H298.666667L234.666667 640h554.666666zM384 469.333333v-85.333333a128 128 0 0 1 256 0v85.333333h85.333333v-85.333333a213.333333 213.333333 0 0 0-426.666666 0v85.333333h85.333333z"  horiz-adv-x="1024" />

    
    <glyph glyph-name="vip-crown--fill" unicode="&#59316;" d="M119.466667 674.133333L298.666667 554.666667l178.602666 250.026666a42.666667 42.666667 0 0 0 69.461334 0L725.333333 554.666667l179.2 119.466666a42.666667 42.666667 0 0 0 66.005334-40.533333l-70.101334-595.925333a42.666667 42.666667 0 0 0-42.368-37.674667H165.930667a42.666667 42.666667 0 0 0-42.368 37.674667L53.461333 633.642667A42.666667 42.666667 0 0 0 119.466667 674.133333zM512 256a85.333333 85.333333 0 1 1 0 170.666667 85.333333 85.333333 0 0 1 0-170.666667z"  horiz-adv-x="1024" />

    
    <glyph glyph-name="vip-crown--line" unicode="&#59317;" d="M148.992 551.893333L203.861333 85.333333h616.277334l54.869333 466.56-171.093333-114.048L512 706.517333l-191.914667-268.672-171.093333 114.048zM119.509333 674.133333L298.666667 554.666667l178.602666 250.026666a42.666667 42.666667 0 0 0 69.461334 0L725.333333 554.666667l179.2 119.466666a42.666667 42.666667 0 0 0 66.005334-40.533333l-70.101334-595.925333a42.666667 42.666667 0 0 0-42.368-37.674667H165.930667a42.666667 42.666667 0 0 0-42.368 37.674667L53.461333 633.642667A42.666667 42.666667 0 0 0 119.466667 674.133333zM512 256a85.333333 85.333333 0 1 0 0 170.666667 85.333333 85.333333 0 0 0 0-170.666667z"  horiz-adv-x="1024" />

    
    <glyph glyph-name="vip-crown-fill" unicode="&#59318;" d="M85.333333 85.333333h853.333334v-85.333333H85.333333v85.333333zM85.333333 682.666667l213.333334-128 213.333333 256 213.333333-256 213.333334 128v-512H85.333333V682.666667z"  horiz-adv-x="1024" />

    
    <glyph glyph-name="vip-crown-line" unicode="&#59319;" d="M85.333333 85.333333h853.333334v-85.333333H85.333333v85.333333zM85.333333 682.666667l213.333334-149.333334L512 810.666667l213.333333-277.333334L938.666667 682.666667v-512H85.333333V682.666667z m85.333334-163.882667V256h682.666666V518.784l-145.92-102.144L512 670.72l-195.413333-254.08L170.666667 518.826667z"  horiz-adv-x="1024" />

    
    <glyph glyph-name="vip-diamond-fill" unicode="&#59320;" d="M207.914667 768h608.170666a42.666667 42.666667 0 0 0 34.517334-17.578667l163.114666-224.256a21.333333 21.333333 0 0 0-1.578666-27.008L527.658667-25.685333a21.333333 21.333333 0 0 0-31.317334 0L11.861333 499.114667a21.333333 21.333333 0 0 0-1.578666 27.050666l163.114666 224.256A42.666667 42.666667 0 0 0 207.914667 768z"  horiz-adv-x="1024" />

    
    <glyph glyph-name="vip-diamond-line" unicode="&#59321;" d="M207.914667 768h608.170666a42.666667 42.666667 0 0 0 34.517334-17.578667l163.114666-224.256a21.333333 21.333333 0 0 0-1.578666-27.008L527.658667-25.685333a21.333333 21.333333 0 0 0-30.122667-1.194667c-0.298667 0.256-162.133333 175.573333-485.674667 526.037333a21.333333 21.333333 0 0 0-1.578666 27.008l163.114666 224.256A42.666667 42.666667 0 0 0 207.914667 768z m21.76-85.333333l-119.466667-164.266667L512 83.2l401.792 435.2-119.466667 164.266667H229.674667z"  horiz-adv-x="1024" />

    
    <glyph glyph-name="vip-line" unicode="&#59322;" d="M85.333333 85.333333h853.333334v-85.333333H85.333333v85.333333z m384 469.333334h85.333334v-341.333334h-85.333334V554.666667zM339.84 554.666667h90.666667l-127.402667-339.797334h-85.333333L90.368 554.666667h90.666667l79.402666-218.154667L339.84 554.666667zM725.333333 298.666667v-85.333334h-85.333333V554.666667h170.666667a128 128 0 0 0 0-256h-85.333334z m0 170.666666v-85.333333h85.333334a42.666667 42.666667 0 0 1 0 85.333333h-85.333334zM85.333333 768h853.333334v-85.333333H85.333333V768z"  horiz-adv-x="1024" />

    
    <glyph glyph-name="vip-fill" unicode="&#59323;" d="M128 768h768a42.666667 42.666667 0 0 0 42.666667-42.666667v-682.666666a42.666667 42.666667 0 0 0-42.666667-42.666667H128a42.666667 42.666667 0 0 0-42.666667 42.666667V725.333333a42.666667 42.666667 0 0 0 42.666667 42.666667z m341.333333-234.666667v-298.666666h85.333334v298.666666h-85.333334z m-12.16 0H366.976l-63.872-175.488L239.232 533.333333H149.034667l111.402666-297.130666h85.333334L457.173333 533.333333z m225.493334-213.333333h64a106.666667 106.666667 0 1 1 0 213.333333H597.333333v-298.666666h85.333334v85.333333z m0 85.333333v42.666667h64a21.333333 21.333333 0 1 0 0-42.666667H682.666667z"  horiz-adv-x="1024" />

    
    <glyph glyph-name="archive-drawer-line" unicode="&#59035;" d="M128 768.341333C128 791.722667 146.986667 810.666667 170.368 810.666667h683.264a42.666667 42.666667 0 0 0 42.368-42.325334v-768.682666a42.368 42.368 0 0 0-42.368-42.325334H170.368A42.666667 42.666667 0 0 0 128-0.341333V768.341333zM810.666667 426.666667V725.333333H213.333333v-298.666666h597.333334z m0-85.333334H213.333333v-298.666666h597.333334v298.666666zM384 640h256v-85.333333H384V640z m0-384h256v-85.333333H384v85.333333z"  horiz-adv-x="1024" />

    
    <glyph glyph-name="mail-fill" unicode="&#59047;" d="M128 768h768a42.666667 42.666667 0 0 0 42.666667-42.666667v-682.666666a42.666667 42.666667 0 0 0-42.666667-42.666667H128a42.666667 42.666667 0 0 0-42.666667 42.666667V725.333333a42.666667 42.666667 0 0 0 42.666667 42.666667z m386.56-370.474667L240.981333 629.845333 185.728 564.821333l329.386667-279.68 323.456 279.893334-55.808 64.554666-268.16-232.064z"  horiz-adv-x="1024" />

    
    <glyph glyph-name="mail-line" unicode="&#59048;" d="M128 768h768a42.666667 42.666667 0 0 0 42.666667-42.666667v-682.666666a42.666667 42.666667 0 0 0-42.666667-42.666667H128a42.666667 42.666667 0 0 0-42.666667 42.666667V725.333333a42.666667 42.666667 0 0 0 42.666667 42.666667z m725.333333-180.821333l-338.261333-302.933334L170.666667 588.117333V85.333333h682.666666V587.178667zM192.469333 682.666667l322.133334-284.245334L832.085333 682.666667H192.469333z"  horiz-adv-x="1024" />

    
    <glyph glyph-name="send-plane-line" unicode="&#59059;" d="M82.048 496.213333c-21.76 8.746667-21.504 21.76 1.450667 29.397334l814.336 271.445333c22.570667 7.509333 35.498667-5.12 29.184-27.221333l-232.704-814.336c-6.4-22.570667-20.266667-23.594667-30.592-2.986667L469.333333 341.333333 82.048 496.213333z m208.64 8.533334l240.469333-96.213334 129.706667-259.498666 151.296 529.493333L290.645333 504.746667z"  horiz-adv-x="1024" />

    
    <glyph glyph-name="send-plane-fill1" unicode="&#59060;" d="M83.029333 498.56c-22.272 7.424-22.485333 19.413333 0.426667 27.050667l814.378667 271.445333c22.570667 7.509333 35.498667-5.12 29.184-27.221333l-232.704-814.336c-6.4-22.570667-19.413333-23.338667-28.970667-1.92L512 298.666667l256 341.333333-341.333333-256-343.637334 114.56z"  horiz-adv-x="1024" />

    
    <glyph glyph-name="edit-box-line" unicode="&#59088;" d="M714.965333 768l-85.333333-85.333333H213.333333v-597.333334h597.333334V501.632l85.333333 85.333333V42.666667a42.666667 42.666667 0 0 0-42.666667-42.666667H170.666667a42.666667 42.666667 0 0 0-42.666667 42.666667V725.333333a42.666667 42.666667 0 0 0 42.666667 42.666667h544.298666z m159.061334 38.4L934.4 745.984l-392.192-392.192-60.245333-0.128-0.085334 60.458667L874.026667 806.4z"  horiz-adv-x="1024" />

    
    <glyph glyph-name="pencil-line" unicode="&#59098;" d="M671.061333 482.730667l-60.330666 60.330666L213.333333 145.664V85.333333h60.330667l397.397333 397.397334z m60.330667 60.330666l60.330667 60.330667-60.330667 60.330667-60.330667-60.330667 60.330667-60.330667zM308.992 0H128v181.034667L701.226667 754.261333a42.666667 42.666667 0 0 0 60.330666 0l120.704-120.704a42.666667 42.666667 0 0 0 0-60.330666L309.034667 0z"  horiz-adv-x="1024" />

    
    <glyph glyph-name="t-box-line" unicode="&#59105;" d="M213.333333 682.666667v-597.333334h597.333334V682.666667H213.333333zM170.666667 768h682.666666a42.666667 42.666667 0 0 0 42.666667-42.666667v-682.666666a42.666667 42.666667 0 0 0-42.666667-42.666667H170.666667a42.666667 42.666667 0 0 0-42.666667 42.666667V725.333333a42.666667 42.666667 0 0 0 42.666667 42.666667z m384-298.666667v-298.666666h-85.333334v298.666666H298.666667V554.666667h426.666666v-85.333334h-170.666666z"  horiz-adv-x="1024" />

    
    <glyph glyph-name="double-quotes-r" unicode="&#59191;" d="M828.458667 611.029333C872.405333 564.352 896 512 896 427.136c0-149.333333-104.832-283.178667-257.28-349.354667l-38.101333 58.794667c142.293333 76.970667 170.112 176.853333 181.205333 239.829333-22.912-11.861333-52.906667-16-82.304-13.269333-76.970667 7.125333-137.642667 70.314667-137.642667 148.864a149.333333 149.333333 0 0 0 149.333334 149.333333c45.781333 0 89.557333-20.906667 117.248-50.304z m-426.666667 0C445.738667 564.352 469.333333 512 469.333333 427.136c0-149.333333-104.832-283.178667-257.28-349.354667l-38.101333 58.794667c142.293333 76.970667 170.112 176.853333 181.205333 239.829333-22.912-11.861333-52.906667-16-82.304-13.269333C195.882667 370.261333 135.253333 433.450667 135.253333 512a149.333333 149.333333 0 0 0 149.333334 149.333333c45.781333 0 89.557333-20.906667 117.248-50.304z"  horiz-adv-x="1024" />

    
    <glyph glyph-name="double-quotes-l" unicode="&#59193;" d="M195.541333 156.970667C151.594667 203.648 128 256 128 340.864c0 149.333333 104.832 283.178667 257.28 349.354667l38.101333-58.794667c-142.293333-76.970667-170.112-176.853333-181.205333-239.829333 22.912 11.861333 52.906667 16 82.304 13.269333 76.970667-7.125333 137.642667-70.314667 137.642667-148.864a149.333333 149.333333 0 0 0-149.333334-149.333333 165.162667 165.162667 0 0 0-117.248 50.304z m426.666667 0C578.261333 203.648 554.666667 256 554.666667 340.864c0 149.333333 104.832 283.178667 257.28 349.354667l38.101333-58.794667c-142.293333-76.970667-170.112-176.853333-181.205333-239.829333 22.912 11.861333 52.906667 16 82.304 13.269333 76.970667-7.125333 137.642667-70.314667 137.642666-148.864a149.333333 149.333333 0 0 0-149.333333-149.333333 165.162667 165.162667 0 0 0-117.248 50.304z"  horiz-adv-x="1024" />

    
    <glyph glyph-name="lightbulb-flash-line" unicode="&#59228;" d="M425.514667 128h172.970666c5.632 51.285333 31.786667 93.610667 74.24 139.818667 4.821333 5.205333 35.498667 36.992 39.125334 41.514666a256 256 0 1 1-399.786667 0.085334c3.669333-4.565333 34.432-36.394667 39.168-41.557334 42.496-46.250667 68.650667-88.576 74.282667-139.861333zM597.333333 42.666667h-170.666666v-42.666667h170.666666v42.666667z m-351.829333 213.333333a341.333333 341.333333 0 1 0 532.906667-0.085333C751.957333 222.976 682.666667 170.666667 682.666667 106.666667V0a85.333333 85.333333 0 0 0-85.333334-85.333333h-170.666666a85.333333 85.333333 0 0 0-85.333334 85.333333v106.666667C341.333333 170.666667 272 222.976 245.504 256zM554.666667 469.162667h106.666666l-192-256v170.666666H362.666667L554.666667 640v-170.88z"  horiz-adv-x="1024" />

    
    <glyph glyph-name="lightbulb-line" unicode="&#59229;" d="M425.514667 128H469.333333v213.333333h85.333334v-213.333333h43.818666c5.632 51.285333 31.786667 93.610667 74.24 139.818667 4.821333 5.205333 35.498667 36.992 39.125334 41.514666a256 256 0 1 1-399.786667 0.085334c3.669333-4.565333 34.432-36.394667 39.168-41.557334 42.496-46.250667 68.650667-88.576 74.282667-139.861333zM426.666667 42.666667v-42.666667h170.666666v42.666667h-170.666666z m-181.162667 213.333333a341.333333 341.333333 0 1 0 532.906667-0.085333C751.957333 222.976 682.666667 170.666667 682.666667 106.666667V0a85.333333 85.333333 0 0 0-85.333334-85.333333h-170.666666a85.333333 85.333333 0 0 0-85.333334 85.333333v106.666667C341.333333 170.666667 272 222.976 245.504 256z"  horiz-adv-x="1024" />

    
    <glyph glyph-name="instagram-fill" unicode="&#59240;" d="M512 810.666667c115.925333 0 130.389333-0.426667 175.872-2.56 45.44-2.133333 76.373333-9.258667 103.594667-19.84 28.16-10.837333 51.882667-25.514667 75.605333-49.194667a209.408 209.408 0 0 0 49.194667-75.605333c10.538667-27.178667 17.706667-58.154667 19.84-103.594667 2.005333-45.482667 2.56-59.946667 2.56-175.872 0-115.925333-0.426667-130.389333-2.56-175.872-2.133333-45.44-9.301333-76.373333-19.84-103.594667a208.341333 208.341333 0 0 0-49.194667-75.605333 209.706667 209.706667 0 0 0-75.605333-49.194667c-27.178667-10.538667-58.154667-17.706667-103.594667-19.84-45.482667-2.005333-59.946667-2.56-175.872-2.56-115.925333 0-130.389333 0.426667-175.872 2.56-45.44 2.133333-76.373333 9.301333-103.594667 19.84a208.64 208.64 0 0 0-75.605333 49.194667 209.237333 209.237333 0 0 0-49.194667 75.605333c-10.581333 27.178667-17.706667 58.154667-19.84 103.594667C85.888 253.61066700000003 85.333333 268.074667 85.333333 384c0 115.925333 0.426667 130.389333 2.56 175.872 2.133333 45.482667 9.258667 76.373333 19.84 103.594667a208.213333 208.213333 0 0 0 49.194667 75.605333A208.938667 208.938667 0 0 0 232.533333 788.266667c27.221333 10.581333 58.112 17.706667 103.594667 19.84C381.610667 810.112 396.074667 810.666667 512 810.666667z m0-213.333334a213.333333 213.333333 0 1 1 0-426.666666 213.333333 213.333333 0 0 1 0 426.666666z m277.333333 10.666667a53.333333 53.333333 0 0 1-106.666666 0 53.333333 53.333333 0 0 1 106.666666 0zM512 512a128 128 0 1 0 0-256 128 128 0 0 0 0 256z"  horiz-adv-x="1024" />

    
    <glyph glyph-name="settings-line1" unicode="&#59504;" d="M512 853.333333l405.333333-234.666666v-469.333334L512-85.333333l-405.333333 234.666666v469.333334L512 853.333333z m0-98.602666L192 569.472v-370.944l320-185.258667 320 185.258667V569.472L512 754.730667zM512 213.333333a170.666667 170.666667 0 1 0 0 341.333334 170.666667 170.666667 0 0 0 0-341.333334z m0 85.333334a85.333333 85.333333 0 1 1 0 170.666666 85.333333 85.333333 0 0 1 0-170.666666z"  horiz-adv-x="1024" />

    
    <glyph glyph-name="file-list--line" unicode="&#59586;" d="M853.333333-42.666667H170.666667a42.666667 42.666667 0 0 0-42.666667 42.666667V768a42.666667 42.666667 0 0 0 42.666667 42.666667h682.666666a42.666667 42.666667 0 0 0 42.666667-42.666667v-768a42.666667 42.666667 0 0 0-42.666667-42.666667z m-42.666666 85.333334V725.333333H213.333333v-682.666666h597.333334zM341.333333 597.333333h341.333334v-85.333333H341.333333V597.333333z m0-170.666666h341.333334v-85.333334H341.333333v85.333334z m0-170.666667h213.333334v-85.333333H341.333333v85.333333z"  horiz-adv-x="1024" />

    


  </font>
</defs>
</svg>
